<?xml version="1.0" standalone="no"?>
<!DOCTYPE svg PUBLIC "-//W3C//DTD SVG 1.1//EN" "http://www.w3.org/Graphics/SVG/1.1/DTD/svg11.dtd" >
<svg xmlns="http://www.w3.org/2000/svg">
<metadata></metadata>
<defs>
<font id="martellregular" horiz-adv-x="612" >
<font-face units-per-em="2048" ascent="1434" descent="-614" />
<missing-glyph horiz-adv-x="500" />
<glyph horiz-adv-x="0" />
<glyph horiz-adv-x="682" />
<glyph />
<glyph />
<glyph />
<glyph unicode="&#x9;" />
<glyph unicode="&#xa;" />
<glyph unicode="&#xd;" />
<glyph unicode=" " />
<glyph unicode="!" horiz-adv-x="294" d="M53 82q0 46 33.5 79.5t79.5 33.5t79.5 -33.5t33.5 -79.5t-33.5 -78.5t-79.5 -32.5t-79.5 32.5t-33.5 78.5zM117 401v850h102v-850h-102z" />
<glyph unicode="&#x22;" horiz-adv-x="516" d="M176 1124h103l10 -202h-82zM350 922l10 202h103l-31 -202h-82z" />
<glyph unicode="#" horiz-adv-x="983" d="M-80 391v103h215l76 325h-211v103h236l96 409l100 -22l-92 -387h307l96 409l101 -22l-92 -387h235v-103h-258l-78 -325h254v-103h-276l-92 -391l-101 23l86 368h-305l-92 -391l-100 23l86 368h-191zM240 494h307l76 325h-306z" />
<glyph unicode="$" horiz-adv-x="1019" d="M53 106v269h82l21 -213q3 -2 24 -13t30 -15.5t31.5 -14.5t40.5 -15.5t44.5 -12.5t56.5 -11t63 -6v596q-67 20 -113.5 37t-99 45.5t-84 61t-52.5 80.5t-21 107q0 87 30 154.5t83 108.5t117 64t140 30v76h103v-72q116 -3 219 -30t164 -60v-271h-82l-21 205q-145 49 -280 54 v-515q62 -17 95.5 -27t90 -30.5t88 -38t71.5 -46.5t61 -60t36 -74.5t15 -93.5q0 -91 -29 -162t-73.5 -114t-107.5 -71.5t-121.5 -40t-125.5 -14.5v-75h-103v75q-140 7 -228.5 42t-164.5 91zM178 1001q0 -45 20 -81t60 -62.5t83 -44.5t105 -37v479q-54 -6 -99.5 -22.5 t-84.5 -45.5t-61.5 -76.5t-22.5 -109.5zM549 74q354 18 354 301q0 33 -10.5 61.5t-26.5 50.5t-45 42t-54.5 33.5t-67.5 29t-71.5 24.5t-78.5 23v-565z" />
<glyph unicode="%" horiz-adv-x="903" d="M53 1102q0 103 57 181.5t148 78.5t148 -78.5t57 -181.5t-57 -182.5t-148 -79.5t-148 79.5t-57 182.5zM82 47l676 1284l90 -47l-676 -1284zM156 1102q0 -72 32.5 -116t69.5 -44t69.5 44t32.5 116t-32.5 115t-69.5 43t-69.5 -43t-32.5 -115zM483 231q0 103 57 182t148 79 t148 -79t57 -182t-57 -181.5t-148 -78.5t-148 78.5t-57 181.5zM586 231q0 -72 32.5 -115.5t69.5 -43.5t70 43.5t33 115.5t-33 115t-70 43t-69.5 -43t-32.5 -115z" />
<glyph unicode="&#x26;" horiz-adv-x="1216" d="M324 432q0 104 47.5 193t132.5 155q-53 46 -83 111t-30 135q0 96 53 174.5t137.5 120t178.5 41.5q81 0 156.5 -32t130.5 -91l-78 -70q-38 43 -93.5 67t-115.5 24q-103 0 -184.5 -66.5t-81.5 -167.5q0 -59 31 -112.5t83 -84.5h389v123l107 43v-166h199v-102h-199v-756 h-268q-98 0 -190.5 34t-164 93t-114.5 146.5t-43 187.5zM426 432q0 -104 60 -188t153 -128t197 -44h161v655h-389q-83 -49 -132.5 -126t-49.5 -169z" />
<glyph unicode="'" horiz-adv-x="260" d="M176 1124h103l-11 -202h-82z" />
<glyph unicode="(" horiz-adv-x="606" d="M209 666q0 144 20 264t63 219.5t119 156t179 56.5v-102q-94 0 -157.5 -77t-92.5 -208t-29 -309t29 -309t92.5 -208t157.5 -77v-101q-83 0 -149 37.5t-108.5 101.5t-71 154t-40.5 189t-12 213z" />
<glyph unicode=")" horiz-adv-x="636" d="M209 -29v101q139 0 208.5 160.5t69.5 433.5t-69.5 433.5t-208.5 160.5v102q103 0 179 -56.5t119 -156t63 -219.5t20 -264q0 -114 -12 -213t-40.5 -189t-71 -154t-108.5 -101.5t-149 -37.5z" />
<glyph unicode="*" />
<glyph unicode="+" />
<glyph unicode="," horiz-adv-x="360" d="M10 -207q96 100 88 174q-2 21 -14 56q-10 45 -10 59q0 46 33 79.5t79 33.5t79.5 -33.5t33.5 -79.5q0 -27 -7.5 -61t-28 -75t-51.5 -74.5t-83.5 -56t-118.5 -22.5z" />
<glyph unicode="-" horiz-adv-x="794" d="M287 561v105h565v-105h-565z" />
<glyph unicode="." horiz-adv-x="339" d="M53 82q0 46 33.5 79.5t79.5 33.5t79.5 -33.5t33.5 -79.5t-33.5 -78.5t-79.5 -32.5t-79.5 32.5t-33.5 78.5z" />
<glyph unicode="/" horiz-adv-x="790" d="M82 47l676 1284l90 -47l-676 -1284z" />
<glyph unicode="0" horiz-adv-x="1052" d="M43 666q0 183 60.5 341.5t172.5 256.5t250 98t250.5 -98t173 -256.5t60.5 -341.5q0 -136 -36 -262.5t-98.5 -222t-154 -153t-195.5 -57.5q-138 0 -250 97.5t-172.5 256t-60.5 341.5zM145 666q0 -127 32.5 -239t85.5 -189t122 -121.5t141 -44.5t141 44.5t122 121.5 t85.5 189t32.5 239t-32.5 239t-85.5 189t-122 121.5t-141 44.5t-141 -44.5t-122 -121.5t-85.5 -189t-32.5 -239z" />
<glyph unicode="1" horiz-adv-x="1052" d="M250 0v82l225 20v1100l-225 -61v108l328 82v-1229l225 -20v-82h-553z" />
<glyph unicode="2" horiz-adv-x="1052" d="M119 0l653 799q59 71 59 176q0 119 -83 202t-201 83q-119 0 -203 -83.5t-84 -201.5l-90 90q31 129 136.5 213t240.5 84q161 0 274 -113t113 -274q0 -138 -82 -240l-514 -633h487l19 164h82v-266h-807z" />
<glyph unicode="3" horiz-adv-x="1052" d="M78 319l92 93q0 -141 99.5 -240.5t240.5 -99.5t240.5 99.5t99.5 240.5t-99.5 240.5t-240.5 99.5h-102l362 477h-541l-18 -164h-82v266h846l-369 -487q150 -32 248 -153.5t98 -278.5q0 -183 -129.5 -312t-312.5 -129q-159 0 -279.5 98t-152.5 250z" />
<glyph unicode="4" horiz-adv-x="1052" d="M43 297v102l731 932v-932h234v-102h-234v-195l225 -20v-82h-553v82l226 20v195h-629zM170 399h502v629z" />
<glyph unicode="5" horiz-adv-x="1052" d="M88 555v776h825v-102h-723v-455q75 50 147 66t165 16q90 0 175 -36t148.5 -97t101.5 -147.5t38 -180.5q0 -134 -60.5 -231.5t-160.5 -145t-226 -47.5q-141 0 -258.5 55t-155.5 156l70 72q31 -82 117 -132t227 -50q156 0 250 85t94 238q0 148 -108 253.5t-252 105.5 q-271 0 -414 -199z" />
<glyph unicode="6" horiz-adv-x="1052" d="M127 414v506q0 182 115 312t282 130q106 0 195 -56.5t143 -152.5l-76 -76q-39 84 -109 133.5t-153 49.5q-120 0 -207.5 -98t-87.5 -242v-211q55 69 131.5 108t163.5 39q167 0 283.5 -130t116.5 -312t-116.5 -312.5t-283.5 -130.5t-282 130.5t-115 312.5zM229 414 q0 -144 87.5 -243t207.5 -99t208.5 99t88.5 243t-88 242t-209 98q-120 0 -207.5 -98t-87.5 -242z" />
<glyph unicode="7" horiz-adv-x="1052" d="M102 1065v266h848l-710 -1331h-115l653 1229h-575l-19 -164h-82z" />
<glyph unicode="8" horiz-adv-x="1052" d="M61 424q0 137 77 250t202 166q-52 40 -81.5 99.5t-29.5 127.5q0 121 87 206t210 85t211 -85t88 -206q0 -68 -30 -127t-82 -100q125 -53 201.5 -165.5t76.5 -250.5q0 -124 -62.5 -228.5t-169.5 -164.5t-233 -60t-233 60t-169.5 164.5t-62.5 228.5zM164 424 q0 -145 106 -248.5t256 -103.5t256.5 103.5t106.5 248.5t-106.5 248.5t-256.5 103.5t-256 -103.5t-106 -248.5zM332 1067q0 -77 56.5 -132.5t137.5 -55.5t139 55.5t58 132.5t-58 132.5t-139 55.5t-137.5 -55.5t-56.5 -132.5z" />
<glyph unicode="9" horiz-adv-x="1052" d="M127 920q0 182 115 312t282 130t283.5 -130t116.5 -312v-506q0 -182 -116.5 -312.5t-283.5 -130.5q-107 0 -195.5 55.5t-142.5 151.5l76 76q38 -84 108.5 -133t153.5 -49q120 0 208.5 99t88.5 243v209q-55 -69 -132.5 -108.5t-164.5 -39.5q-110 0 -202 61t-143.5 163 t-51.5 221zM229 920q0 -144 87.5 -243t207.5 -99t208.5 99t88.5 243t-88 242t-209 98q-120 0 -207.5 -98t-87.5 -242z" />
<glyph unicode=":" horiz-adv-x="344" d="M53 82q0 46 33.5 79.5t79.5 33.5t79.5 -33.5t33.5 -79.5t-33.5 -78.5t-79.5 -32.5t-79.5 32.5t-33.5 78.5zM53 553q0 46 33.5 79.5t79.5 33.5t79.5 -33.5t33.5 -79.5t-33.5 -79.5t-79.5 -33.5t-79.5 33.5t-33.5 79.5z" />
<glyph unicode=";" horiz-adv-x="337" d="M-6 -236q56 62 73 101t13 74q-2 21 -14 57q-11 50 -11 57q0 46 33.5 80.5t79.5 34.5t79.5 -34t33.5 -81q0 -27 -7.5 -60.5t-28 -75t-51 -74.5t-83 -56t-117.5 -23zM55 553q0 46 33.5 79.5t79.5 33.5t79.5 -33.5t33.5 -79.5t-33.5 -79.5t-79.5 -33.5t-79.5 33.5 t-33.5 79.5z" />
<glyph unicode="&#x3c;" horiz-adv-x="411" d="M0 377l311 336l49 -35l-241 -301l241 -301l-49 -35z" />
<glyph unicode="=" horiz-adv-x="794" d="M287 238v104h565v-104h-565zM287 561v105h565v-105h-565z" />
<glyph unicode="&#x3e;" horiz-adv-x="335" d="M0 76l242 301l-242 301l49 35l311 -336l-311 -336z" />
<glyph unicode="?" horiz-adv-x="473" d="M-166 1010q0 124 90 208.5t254 84.5q139 0 221 -89.5t82 -205.5q0 -60 -19.5 -106.5t-48.5 -73t-63 -49.5t-63 -37.5t-48.5 -35t-19.5 -44.5v-261h-102v261q0 46 19.5 80.5t48.5 53.5t63 40t63 39.5t48.5 53t19.5 79.5q0 76 -54 134t-147 58q-125 0 -183 -55t-58 -135 h-103zM53 82q0 46 33.5 79.5t79.5 33.5t79.5 -33.5t33.5 -79.5t-33.5 -78.5t-79.5 -32.5t-79.5 32.5t-33.5 78.5z" />
<glyph unicode="@" horiz-adv-x="1437" d="M0 700q0 148 57.5 283.5t155 234t233 156.5t283.5 58t283.5 -58t233.5 -156.5t156 -234t58 -283.5q0 -83 -18.5 -144t-53 -96.5t-72 -54.5t-85.5 -28q-29 -7 -81 -4t-104 10.5t-90 31.5t-38 60q-82 -72 -193 -72q-123 0 -210 87t-87 210q0 122 87 208.5t210 86.5 q121 0 208 -86.5t87 -208.5v-198q72 -41 190 -23q35 7 58 17.5t45.5 33t33.5 65t11 105.5q0 128 -49.5 244.5t-134 201t-201 134t-244.5 49.5t-244.5 -49.5t-201 -134t-134 -201t-49.5 -244.5q0 -171 84 -315.5t229 -228.5t316 -84v-101q-148 0 -283 57.5t-233 155.5 t-155.5 233t-57.5 283zM530 700q0 -82 56.5 -138t138.5 -56q80 0 136.5 56.5t56.5 137.5q0 80 -57 136.5t-136 56.5q-81 0 -138 -56.5t-57 -136.5z" />
<glyph unicode="A" horiz-adv-x="1333" d="M53 0v82l226 20l380 1127l-198 20v82h340l403 -1229l226 -20v-82h-553v82l221 20l-97 281h-520l-96 -281l221 -20v-82h-553zM516 485h451l-226 658z" />
<glyph unicode="B" horiz-adv-x="1048" d="M53 0v82l226 20v1127l-226 20v82h619q138 0 235 -97t97 -235q0 -83 -39.5 -157.5t-108.5 -120.5q93 -51 147 -141t54 -195q0 -158 -112.5 -271.5t-270.5 -113.5h-621zM381 102h293q117 0 197.5 83t80.5 200t-80.5 199t-197.5 82h-293v-564zM381 768h293q95 0 161 67.5 t66 163.5q0 95 -67 162.5t-162 67.5h-291v-461z" />
<glyph unicode="C" horiz-adv-x="1136" d="M53 666q0 133 47 258.5t129 222t202 155t257 58.5q139 0 262.5 -62t212.5 -172v-266h-82l-26 232q-73 76 -169 119.5t-198 43.5q-115 0 -215.5 -50t-168.5 -132.5t-107 -188.5t-39 -218t39 -218t107 -188t168.5 -132t215.5 -50q103 0 198.5 43t168.5 119l26 233h82v-266 q-89 -110 -212.5 -172t-262.5 -62q-137 0 -257 58.5t-202 154.5t-129 221.5t-47 258.5z" />
<glyph unicode="D" horiz-adv-x="1300" d="M53 0v82l226 20v1127l-226 20v82h553q181 0 334 -88.5t242.5 -241.5t89.5 -333q0 -181 -89.5 -334.5t-243 -243.5t-333.5 -90h-553zM381 102h225q153 0 282.5 75.5t205 205.5t75.5 283t-75.5 282.5t-205 205t-282.5 75.5h-225v-1127z" />
<glyph unicode="E" horiz-adv-x="1009" d="M53 0v82l226 20v1127l-226 20v82h971v-327h-82l-20 225h-541v-516h551v-103h-551v-508h541l20 226h82v-328h-971z" />
<glyph unicode="F" horiz-adv-x="980" d="M53 0v82l226 20v1127l-226 20v82h971v-327h-82l-20 225h-541v-516h551v-103h-551v-508l225 -20v-82h-553z" />
<glyph unicode="G" horiz-adv-x="1187" d="M53 666q0 133 47 258.5t129 222t202 155t257 58.5q139 0 262.5 -62t212.5 -172v-266h-82l-26 232q-73 76 -169 119.5t-198 43.5q-115 0 -215.5 -50t-168.5 -132.5t-107 -188.5t-39 -218t39 -218t107 -188t168.5 -132t215.5 -50q103 0 199.5 43t169.5 119v272l-260 20v82 h366v-407q-89 -110 -212.5 -172t-262.5 -62q-137 0 -257 58.5t-202 154.5t-129 221.5t-47 258.5z" />
<glyph unicode="H" horiz-adv-x="1370" d="M53 0v82l226 20v1127l-226 20v82h553v-82l-225 -20v-516h659v516l-225 20v82h553v-82l-225 -20v-1127l225 -20v-82h-553v82l225 20l2 508h-661v-508l225 -20v-82h-553z" />
<glyph unicode="I" horiz-adv-x="608" d="M53 0v82l226 20v1127l-226 20v82h553v-82l-225 -20v-1127l225 -20v-82h-553z" />
<glyph unicode="J" horiz-adv-x="593" d="M53 -254q106 0 181 75t75 179v1229l-225 20v82h553v-82l-225 -20v-1229q0 -148 -105 -252t-254 -104v102z" />
<glyph unicode="K" horiz-adv-x="1323" d="M53 0v82l226 20v1127l-226 20v82h553v-82l-225 -20v-430l113 -97l530 527l-209 20v82h553v-82l-197 -20l-600 -594l613 -533l184 -20v-82h-553v82l209 20l-643 562v-562l225 -20v-82h-553z" />
<glyph unicode="L" horiz-adv-x="989" d="M53 0v82l226 20v1127l-226 20v82h553v-82l-225 -20v-1127h541l20 226h82v-328h-102h-869z" />
<glyph unicode="M" horiz-adv-x="1591" d="M53 0v82l226 20v1127l-226 20v82h328l438 -735l443 735h327v-82l-225 -20v-1127l225 -20v-82h-553v82l226 20v1022l-439 -731l-442 731v-1022l225 -20v-82h-553z" />
<glyph unicode="N" horiz-adv-x="1292" d="M53 0v82l226 20v1127l-226 20v82h328l676 -1124v1022l-226 20v82h553v-82l-225 -20v-1229h-102l-676 1124v-1022l225 -20v-82h-553z" />
<glyph unicode="O" horiz-adv-x="1351" d="M53 666q0 140 50 268t134.5 221.5t202.5 149t248 55.5t248 -55.5t202.5 -149t134.5 -221.5t50 -268t-50 -268t-134.5 -221t-202.5 -148.5t-248 -55.5t-248 55.5t-202.5 148.5t-134.5 221t-50 268zM158 666q0 -162 72 -298t193.5 -214t264.5 -78t265 78t194 214t72 298 q0 121 -42.5 230.5t-114.5 188t-169.5 124.5t-204.5 46t-204.5 -46t-169 -124.5t-114 -188t-42.5 -230.5z" />
<glyph unicode="P" horiz-adv-x="1087" d="M53 0v82l226 20v1127l-226 20v82h553q131 0 241.5 -64.5t175 -175t64.5 -241.5t-64.5 -241.5t-175 -175t-241.5 -64.5h-225v-267l225 -20v-82h-553zM381 471h225q157 0 268 111t111 268t-111 268t-268 111h-225v-758z" />
<glyph unicode="Q" horiz-adv-x="1355" d="M53 666q0 140 50 268t134.5 221.5t202.5 149t248 55.5t248 -55.5t202.5 -149t134.5 -221.5t50 -268q0 -135 -45.5 -258t-128.5 -218l68 -88l225 -20v-82h-289l-82 111q-166 -138 -383 -138q-130 0 -248 55.5t-202.5 148.5t-134.5 221t-50 268zM158 666q0 -162 72 -298 t193.5 -214t264.5 -78q177 0 320 121l-299 403l75 66l301 -392q134 166 134 392q0 121 -42.5 230.5t-114.5 188t-169.5 124.5t-204.5 46t-204.5 -46t-169 -124.5t-114 -188t-42.5 -230.5z" />
<glyph unicode="R" horiz-adv-x="1193" d="M53 0v82l226 20v1127l-226 20v82h553q131 0 241.5 -64.5t175 -175t64.5 -241.5q0 -123 -59 -231.5t-162 -174.5l189 -342l225 -20v-82h-289l-217 399q-80 -30 -168 -30h-225v-267l225 -20v-82h-553zM381 471h225q157 0 268 111t111 268t-111 268t-268 111h-225v-758z" />
<glyph unicode="S" horiz-adv-x="1011" d="M53 106v269h82l21 -213q4 -2 32 -17t40.5 -21t46 -18t61.5 -18t72 -11t92 -5q403 0 403 303q0 56 -28.5 99t-76 71.5t-109.5 51t-131 41t-137.5 38.5t-130.5 48t-109.5 63t-76 90t-28.5 124q0 79 25.5 142t68 103t101 67t120.5 38t131 11q124 0 235 -27.5t175 -62.5v-271 h-82l-21 205q-165 54 -307 54q-65 0 -121.5 -12t-109 -40t-83 -81t-30.5 -126q0 -53 28.5 -93.5t76 -67t110 -48t131 -40t137 -39t131 -49.5t110 -66t76 -94t28.5 -129q0 -83 -22.5 -149t-63 -109t-89 -73t-108.5 -45t-113 -21.5t-110 -6.5q-115 0 -207.5 22.5t-140 48 t-99.5 64.5z" />
<glyph unicode="T" horiz-adv-x="1079" d="M53 1004v327h1055v-327h-82l-20 225h-371v-1127l225 -20v-82h-553v82l225 20v1127h-376l-21 -225h-82z" />
<glyph unicode="U" horiz-adv-x="1275" d="M53 1249v82h553v-82l-225 -20v-828q0 -136 96.5 -232.5t233.5 -96.5t233 96t96 233v828l-225 20v82h553v-82l-225 -20v-828q0 -180 -126 -305t-306 -125t-306 125t-126 305v828z" />
<glyph unicode="V" horiz-adv-x="1269" d="M53 1249v82h553v-82l-221 -20l295 -1041l295 1041l-221 20v82h553v-82l-226 -20l-348 -1229h-106l-348 1229z" />
<glyph unicode="W" horiz-adv-x="1966" d="M53 1249v82h553v-82l-221 -20l295 -1041l295 1041l-225 20v82h557v-82l-226 -20l295 -1041l295 1041l-221 20v82h553v-82l-225 -20l-348 -1229h-107l-295 1040l-295 -1040h-106l-348 1229z" />
<glyph unicode="X" horiz-adv-x="1286" d="M53 0v82l223 22l357 562l-357 561l-223 22v82h553v-82l-211 -20l289 -453l289 453l-211 20v82h553v-82l-223 -22l-357 -561l357 -562l223 -22v-82h-553v82l211 20l-289 453l-289 -453l211 -20v-82h-553z" />
<glyph unicode="Y" horiz-adv-x="1263" d="M53 1249v82h553v-82l-211 -20l289 -453l289 453l-211 20v82h553v-82l-223 -22l-357 -561v-564l226 -20v-82h-553v82l225 20v564l-357 561z" />
<glyph unicode="Z" horiz-adv-x="1099" d="M53 0v102l920 1127h-817l-21 -225h-82v327h1055v-104l-924 -1125h822l20 226h82v-328h-1055z" />
<glyph unicode="[" horiz-adv-x="565" d="M279 -174v1608h327v-82l-225 -21v-1403l225 -20v-82h-327z" />
<glyph unicode="\" horiz-adv-x="823" d="M82 1284l90 47l676 -1284l-90 -47z" />
<glyph unicode="]" horiz-adv-x="661" d="M279 -92l225 20v1403l-225 21v82h327v-1608h-327v82z" />
<glyph unicode="^" horiz-adv-x="806" d="M53 1163l377 271l377 -271l-35 -49l-342 201l-342 -201z" />
<glyph unicode="_" horiz-adv-x="931" d="M291 0h565v-102h-565v102z" />
<glyph unicode="`" horiz-adv-x="487" d="M53 1350l58 84l376 -271l-34 -49z" />
<glyph unicode="a" horiz-adv-x="993" d="M53 315q0 97 56.5 177.5t149.5 125t200 44.5q87 0 165 -30t136 -85v59q0 98 -86 171t-215 73q-75 0 -140 -27.5t-106 -74.5l-78 67q58 64 143 100.5t181 36.5q164 0 283.5 -99.5t119.5 -246.5v-291v-213l203 -20v-82h-305v84q-119 -113 -301 -113q-165 0 -285.5 99 t-120.5 245zM156 315q0 -98 87 -170.5t216 -72.5t215 72.5t86 170.5t-86 171t-215 73t-216 -73t-87 -171z" />
<glyph unicode="b" horiz-adv-x="1212" d="M53 1352v82h328v-676q73 92 181 143t226 51q135 0 252 -64t187.5 -177.5t70.5 -249.5t-70.5 -249.5t-187.5 -177t-252 -63.5q-118 0 -226 50.5t-181 142.5v-164h-102v1331zM381 449q0 -102 59.5 -190t153 -137.5t194.5 -49.5q105 0 198.5 51.5t151.5 141.5t58 196 t-58 196t-151.5 141.5t-198.5 51.5q-169 0 -288 -116.5t-119 -284.5z" />
<glyph unicode="c" horiz-adv-x="952" d="M53 461q0 136 70.5 249.5t188 177.5t253.5 64q218 0 389 -174l-2 -268h-82l-26 231q-122 109 -279 109q-105 0 -199 -51.5t-152 -141.5t-58 -196t58 -196t152 -141.5t199 -51.5q159 0 281 112l76 -75q-71 -67 -164.5 -102.5t-192.5 -35.5q-136 0 -253.5 63.5t-188 177 t-70.5 249.5z" />
<glyph unicode="d" horiz-adv-x="1212" d="M53 461q0 136 71 249.5t188.5 177.5t252.5 64q118 0 225.5 -51t180.5 -143v573l-226 21v82h328v-1332l225 -20v-82h-327v164q-73 -92 -180.5 -142.5t-225.5 -50.5q-135 0 -252.5 63.5t-188.5 177t-71 249.5zM156 461q0 -106 58 -196t152 -141.5t199 -51.5 q101 0 194.5 49.5t152.5 137.5t59 190q0 168 -118.5 284.5t-287.5 116.5q-105 0 -199 -51.5t-152 -141.5t-58 -196z" />
<glyph unicode="e" horiz-adv-x="1003" d="M53 463q0 134 68.5 247t186.5 178.5t257 65.5t256.5 -65.5t185.5 -178.5t68 -247h-919q0 -159 123 -274t286 -115q156 0 273 104l75 -76q-145 -129 -348 -129q-139 0 -257 65.5t-186.5 178t-68.5 246.5zM170 563h788q-37 125 -147.5 206t-245.5 81t-246.5 -81 t-148.5 -206z" />
<glyph unicode="f" horiz-adv-x="565" d="M53 819v103h137v153q0 149 105 254t254 105v-103q-106 0 -181 -75t-75 -181v-153h256v-103h-256v-717l225 -20v-82h-328v819h-137z" />
<glyph unicode="g" horiz-adv-x="1056" d="M53 -197q0 110 62.5 202t163.5 147l118 155q-88 43 -140 125.5t-52 179.5q0 140 100.5 240t239.5 100q73 0 145 -32h340v-82l-213 -21q68 -89 68 -205q0 -154 -115 -256q-97 -85 -219 -85q-24 0 -49 3l-49 -63q62 8 92 8q89 0 176.5 -29.5t158.5 -82t114.5 -132 t43.5 -172.5q0 -75 -28.5 -142t-77 -116t-111.5 -85t-134 -54t-142 -18q-89 0 -176.5 29t-158 81t-114 132t-43.5 173zM156 -197q0 -95 61 -168.5t148.5 -109t179.5 -35.5t180 35.5t149.5 109.5t61.5 168q0 71 -36 131.5t-93 99.5t-125.5 61t-136.5 22t-136 -22t-125 -61 t-92.5 -99.5t-35.5 -131.5zM307 612q0 -98 70 -167.5t168 -69.5t167.5 69.5t69.5 167.5t-69.5 168t-167.5 70t-168 -70t-70 -168z" />
<glyph unicode="h" horiz-adv-x="1222" d="M53 1352v82h328v-676q73 92 178.5 143t222.5 51q56 0 100.5 -8.5t76 -24.5t54 -39t36 -52.5t22 -64.5t11 -75t3.5 -84q0 -22 0.5 -45t-0.5 -46v-52v-359l226 -20v-82h-328v461v50q1 24 1 47v23q0 34 -2 64.5t-8 57.5t-14.5 50t-24 41t-36 30.5t-50 19t-67.5 6.5 q-73 0 -141 -20.5t-113 -50t-80 -58.5t-51 -49l-16 -21v-549l225 -20v-82h-327v1331z" />
<glyph unicode="i" horiz-adv-x="565" d="M53 840v82h328v-820l225 -20v-82h-327v819zM215 1276q0 35 25.5 60.5t60.5 25.5t60.5 -25.5t25.5 -60.5t-25.5 -60.5t-60.5 -25.5t-60.5 25.5t-25.5 60.5z" />
<glyph unicode="j" horiz-adv-x="454" d="M53 -510q106 0 181 75t75 181v1073l-225 21v82h328v-1176q0 -149 -105 -253.5t-254 -104.5v102zM215 1276q0 35 25.5 60.5t60.5 25.5t60.5 -25.5t25.5 -60.5t-25.5 -60.5t-60.5 -25.5t-60.5 25.5t-25.5 60.5z" />
<glyph unicode="k" horiz-adv-x="1222" d="M53 1352v82h328v-848l618 522l68 -72l-362 -313l385 -621l221 -20v-82h-281l-405 655l-244 -196v-357l225 -20v-82h-327v1331z" />
<glyph unicode="l" horiz-adv-x="565" d="M53 1352v82h328v-1332l225 -20v-82h-327v1331z" />
<glyph unicode="m" horiz-adv-x="1890" d="M53 840v82h328v-164q69 86 167 137t208 57h2h26q45 0 82 -5q48 -7 91 -27.5t72 -60t42 -97.5q72 89 184 139.5t230 50.5q75 0 129.5 -16t86.5 -44.5t52 -68t26 -87t9 -101.5q2 -27 2 -55t-2 -56v-63v-359l225 -20v-82h-327l2 463v27q0 92 -1.5 133t-11 96t-31 76.5 t-60.5 38t-99 16.5q-113 0 -226 -54.5t-176 -144.5l2 -549l226 -20v-82h-330v637q0 107 -46.5 160t-152.5 53q-113 0 -225.5 -54.5t-175.5 -144.5v-549l225 -20v-82h-327v819z" />
<glyph unicode="n" horiz-adv-x="1222" d="M53 840v82h328v-164q73 92 178.5 143t222.5 51q56 0 100.5 -8.5t76 -24.5t54 -39t36 -52.5t22 -64.5t11 -75t3.5 -84q0 -22 0.5 -45t-0.5 -46v-52v-359l226 -20v-82h-328v461v50q1 24 1 47v23q0 34 -2 64.5t-8 57.5t-14.5 50t-24 41t-36 30.5t-50 19t-67.5 6.5 q-73 0 -141 -20.5t-113 -50t-80 -58.5t-51 -49l-16 -21v-549l225 -20v-82h-327v819z" />
<glyph unicode="o" horiz-adv-x="1003" d="M53 461q0 134 68.5 247t186.5 178.5t257 65.5t256.5 -65.5t185.5 -178.5t68 -247t-68 -246.5t-185.5 -178t-256.5 -65.5t-257 65.5t-186.5 178t-68.5 246.5zM156 461q0 -159 123 -274t286 -115q106 0 200 52t151 142t57 195t-57 195t-151 142t-200 52q-163 0 -286 -115 t-123 -274z" />
<glyph unicode="p" horiz-adv-x="1212" d="M53 840v82h328v-164q73 92 181 143t226 51q135 0 252 -64t187.5 -177.5t70.5 -249.5t-70.5 -249.5t-187.5 -177t-252 -63.5q-118 0 -226 50.5t-181 142.5v-674l225 -20v-82h-327v1431zM381 473q0 -168 119 -284.5t288 -116.5q105 0 198.5 51.5t151.5 141.5t58 196 t-58 196t-151.5 141.5t-198.5 51.5q-101 0 -194.5 -49.5t-153 -137.5t-59.5 -190z" />
<glyph unicode="q" horiz-adv-x="1212" d="M53 461q0 136 71 249.5t188.5 177.5t252.5 64q118 0 225.5 -51t180.5 -143v164h102v-1432l225 -20v-82h-327v776q-73 -92 -180.5 -142.5t-225.5 -50.5q-135 0 -252.5 63.5t-188.5 177t-71 249.5zM156 461q0 -106 58 -196t152 -141.5t199 -51.5q169 0 287.5 116.5 t118.5 284.5q0 102 -59 190t-152.5 137.5t-194.5 49.5q-105 0 -199 -51.5t-152 -141.5t-58 -196z" />
<glyph unicode="r" horiz-adv-x="1003" d="M53 870v82h328v-194q73 92 178.5 143t222.5 51q140 0 205.5 -50.5t85.5 -149.5l-92 -93q-8 94 -51.5 142.5t-147.5 48.5q-73 0 -141 -20.5t-113 -50t-80 -58.5t-51 -49l-16 -21v-549l225 -20v-82h-327v850z" />
<glyph unicode="s" horiz-adv-x="954" d="M53 172l84 84q0 -67 97.5 -125.5t250.5 -58.5t249.5 58.5t96.5 125.5t-96.5 125.5t-249.5 58.5q-99 0 -189 29.5t-150 89.5t-60 137t60 137t150 89.5t189 29.5q124 0 231.5 -47t147.5 -127l-82 -82q0 54 -82.5 104t-214.5 50t-214.5 -50t-82.5 -104t82.5 -103.5 t214.5 -49.5q113 0 214 -33.5t168 -100.5t67 -153t-67 -152.5t-168 -99.5t-214 -33q-145 0 -268 54t-164 147z" />
<glyph unicode="t" horiz-adv-x="565" d="M53 819v103h137v512h103v-512h256v-103h-256v-491q0 -106 75 -181t181 -75v-101q-149 0 -254 104t-105 253v491h-137z" />
<glyph unicode="u" horiz-adv-x="1222" d="M53 840v82h328v-461v-50q-1 -24 -1 -47v-23q0 -34 2 -64.5t8 -57.5t14.5 -50t24 -41t36 -30.5t50 -19t67.5 -6.5q73 0 141 20.5t113 49.5t80 58t51 50l16 20v549l-225 21v82h327v-820l226 -20v-82h-328v164q-73 -92 -178.5 -142.5t-222.5 -50.5q-56 0 -100.5 8.5 t-76 24.5t-54 39t-36 52t-22 64t-11 75t-3.5 84q0 22 -0.5 45t0.5 46v52v358z" />
<glyph unicode="v" horiz-adv-x="1099" d="M53 840v82h266l359 -803l311 694l-201 27v82h314l-2 -109l-369 -813h-106l-371 813z" />
<glyph unicode="w" horiz-adv-x="1835" d="M53 840v82h266l359 -803l311 694l-201 27v82h314l-2 -101l313 -702l311 694l-200 27v82h313l-2 -109l-369 -813h-106l-316 692l-313 -692h-106l-371 813z" />
<glyph unicode="x" horiz-adv-x="1120" d="M53 0v82l223 22l252 357l-252 356l-223 23v82h279q34 -54 98 -148t111 -162l47 -67l276 377h246v-82l-211 -21l-252 -358l252 -359l211 -20v-82h-252l-270 377l-271 -377h-264z" />
<glyph unicode="y" horiz-adv-x="1099" d="M53 840v82h266l359 -803l311 694l-201 27v82h314l-2 -109l-369 -813l-215 -510l221 -20v-82h-370l258 612l-371 813z" />
<glyph unicode="z" horiz-adv-x="989" d="M53 0v102l764 717h-661l-21 -184h-82v287h920v-105l-762 -715h659l21 185h82v-287h-920z" />
<glyph unicode="{" />
<glyph unicode="|" horiz-adv-x="268" d="M111 0v1331h102v-1331h-102z" />
<glyph unicode="}" />
<glyph unicode="~" horiz-adv-x="731" d="M137 614q15 30 29.5 53.5t37 48.5t51.5 38.5t62 13.5q35 0 76.5 -19t73 -41.5t69.5 -41.5t68 -19q34 0 59.5 32.5t65.5 108.5l53 -47q-16 -34 -29.5 -57.5t-37 -55.5t-53 -49.5t-62.5 -17.5q-36 0 -77 19t-72 41.5t-68.5 41.5t-67.5 19q-36 0 -63.5 -26.5t-61.5 -92.5z " />
<glyph unicode="&#xa0;" />
<glyph unicode="&#xa1;" horiz-adv-x="323" d="M53 840q0 46 33.5 79t79.5 33t79.5 -33t33.5 -79t-33.5 -79.5t-79.5 -33.5t-79.5 33.5t-33.5 79.5zM117 -381v901h102v-901h-102z" />
<glyph unicode="&#xa2;" horiz-adv-x="974" d="M53 461q0 136 70.5 249.5t188 177.5t253.5 64q72 0 127 -14l62 147l94 -38l-60 -144q92 -49 166 -125l-2 -268h-82l-26 231q-40 37 -96 66l-308 -715q59 -20 125 -20q159 0 281 112l76 -75q-71 -67 -164.5 -102.5t-192.5 -35.5q-78 0 -164 27l-63 -148l-94 39l63 148 q-115 65 -184.5 177t-69.5 247zM156 461q0 -100 52.5 -187t139.5 -141l303 707q-48 10 -86 10q-105 0 -199 -51.5t-152 -141.5t-58 -196z" />
<glyph unicode="&#xa3;" horiz-adv-x="874" d="M111 100q69 10 144.5 69t126 141t50.5 151q0 107 -59 151h-199v103h158q-67 92 -97 169.5t-30 182.5q0 76 28.5 134t78.5 92.5t112 51.5t135 17q342 0 342 -279h-102q-7 103 -66.5 140t-173.5 37q-52 0 -94 -10t-76.5 -31.5t-54 -60t-19.5 -91.5q0 -72 13 -125.5 t27.5 -79t47 -71.5t50.5 -76h356v-103h-309q26 -49 35.5 -78t9.5 -73q0 -67 -64 -188t-121 -148h23q49 2 138.5 -25.5t137.5 -27.5q76 0 118.5 23.5t92.5 86.5l66 -78q-47 -60 -123.5 -96.5t-153.5 -36.5q-61 0 -179 31t-179 31q-65 0 -166 -33z" />
<glyph unicode="&#xa4;" horiz-adv-x="778" d="M0 356l88 86q-65 90 -65 203q0 116 67 205l-86 84l72 74l86 -86q90 65 203 65q116 0 202 -67l86 86l72 -74l-84 -84q66 -92 66 -203q0 -110 -68 -205l84 -84l-72 -73l-86 86q-89 -66 -200 -66q-115 0 -205 68l-88 -88zM125 645q0 -100 70 -169.5t170 -69.5q99 0 169 70 t70 169t-70 169.5t-169 70.5q-100 0 -170 -70t-70 -170z" />
<glyph unicode="&#xa5;" horiz-adv-x="1271" d="M53 1249v82h553v-82l-211 -20l289 -453l289 453l-211 20v82h553v-82l-223 -22l-357 -561h273v-84l-273 -21v-223l273 -21v-84h-273v-233h-102v233h-273v84l273 21v223l-273 21v84h273l-357 561z" />
<glyph unicode="&#xa6;" horiz-adv-x="268" d="M111 0v543h102v-543h-102zM111 788v543h102v-543h-102z" />
<glyph unicode="&#xa7;" />
<glyph unicode="&#xa8;" horiz-adv-x="888" d="M297 1276q0 35 25.5 60.5t60.5 25.5t60.5 -25.5t25.5 -60.5t-25.5 -60.5t-60.5 -25.5t-60.5 25.5t-25.5 60.5zM645 1276q0 35 25.5 60.5t60.5 25.5t60.5 -25.5t25.5 -60.5t-25.5 -60.5t-60.5 -25.5t-60.5 25.5t-25.5 60.5z" />
<glyph unicode="&#xa9;" />
<glyph unicode="&#xaa;" />
<glyph unicode="&#xab;" horiz-adv-x="643" d="M0 377l270 377l49 -35l-200 -342l200 -342l-49 -35zM287 377l270 377l49 -35l-200 -342l200 -342l-49 -35z" />
<glyph unicode="&#xac;" />
<glyph unicode="&#xad;" />
<glyph unicode="&#xae;" />
<glyph unicode="&#xaf;" />
<glyph unicode="&#xb0;" />
<glyph unicode="&#xb1;" />
<glyph unicode="&#xb2;" />
<glyph unicode="&#xb3;" />
<glyph unicode="&#xb4;" horiz-adv-x="509" d="M53 1163l377 271l57 -84l-399 -236z" />
<glyph unicode="&#xb5;" />
<glyph unicode="&#xb6;" />
<glyph unicode="&#xb7;" />
<glyph unicode="&#xb8;" />
<glyph unicode="&#xb9;" />
<glyph unicode="&#xba;" horiz-adv-x="731" d="M293 1303q0 77 54.5 131.5t131.5 54.5t132 -55t55 -131q0 -77 -55 -132t-132 -55q-76 0 -131 55t-55 132zM381 1303q0 -40 29 -68.5t69 -28.5t69.5 28.5t29.5 68.5t-29.5 69t-69.5 29t-69 -29t-29 -69z" />
<glyph unicode="&#xbb;" horiz-adv-x="565" d="M0 35l201 342l-201 342l49 35l270 -377l-270 -377zM287 35l200 342l-200 342l49 35l270 -377l-270 -377z" />
<glyph unicode="&#xbc;" />
<glyph unicode="&#xbd;" />
<glyph unicode="&#xbe;" />
<glyph unicode="&#xbf;" horiz-adv-x="448" d="M-166 -84q0 70 27 121.5t65 79.5t76 49t65 43.5t27 50.5v260h103v-260q0 -54 -27 -92t-65 -60t-76 -43.5t-65 -58.5t-27 -90q0 -77 52.5 -134.5t145.5 -57.5q126 0 185 55t59 135h102q0 -124 -90.5 -208.5t-255.5 -84.5q-138 0 -219.5 89.5t-81.5 205.5zM35 840 q0 46 33 79t79 33t79.5 -33t33.5 -79t-33.5 -79.5t-79.5 -33.5t-79 33.5t-33 79.5z" />
<glyph unicode="&#xc0;" horiz-adv-x="1333" d="M53 0v82l226 20l380 1127l-198 20v82h340q34 -111 403 -1229l226 -20v-82h-553v82l221 20l-97 281h-520l-96 -281l221 -20v-82h-553zM393 1698l58 84l376 -271l-34 -49zM516 485h451l-226 658z" />
<glyph unicode="&#xc1;" horiz-adv-x="1333" d="M53 0h553v82l-221 20l96 281h520l97 -281l-221 -20v-82h553v82l-226 20l-403 1229h-340v-82l198 -20l-380 -1127l-226 -20v-82zM516 485l225 658l226 -658h-451zM537 1511l376 271l58 -84l-400 -236z" />
<glyph unicode="&#xc2;" horiz-adv-x="1333" d="M53 0v82l226 20l380 1127l-198 20v82h340l403 -1229l226 -20v-82h-553v82l221 20l-97 281h-520l-96 -281l221 -20v-82h-553zM311 1511l377 271l377 -271l-35 -49l-342 201l-342 -201zM516 485h451l-226 658z" />
<glyph unicode="&#xc3;" horiz-adv-x="1333" d="M53 0v82l226 20l380 1127l-198 20v82h340q34 -111 403 -1229l226 -20v-82h-553v82l221 20l-97 281h-520l-96 -281l221 -20v-82h-553zM516 485h451l-226 658z" />
<glyph unicode="&#xc4;" horiz-adv-x="1333" d="M53 0v82l226 20l380 1127l-198 20v82h340l403 -1229l226 -20v-82h-553v82l221 20l-97 281h-520l-96 -281l221 -20v-82h-553zM440 1624q0 35 25.5 60.5t60.5 25.5t60.5 -25.5t25.5 -60.5t-25.5 -60.5t-60.5 -25.5t-60.5 25.5t-25.5 60.5zM516 485h451l-226 658zM788 1624 q0 35 25.5 60.5t60.5 25.5t61 -25.5t26 -60.5t-26 -60.5t-61 -25.5t-60.5 25.5t-25.5 60.5z" />
<glyph unicode="&#xc5;" horiz-adv-x="1333" d="M53 0v82l226 20l380 1127l-198 20v82h340l403 -1229l226 -20v-82h-553v82l221 20l-97 281h-520l-96 -281l221 -20v-82h-553zM516 485h451l-226 658zM516 1620q0 76 55 131t131 55q77 0 132 -55t55 -131t-55 -131t-132 -55q-76 0 -131 55t-55 131zM604 1620q0 -40 29 -68 t69 -28t69.5 28.5t29.5 67.5q0 40 -29.5 69t-69.5 29t-69 -29t-29 -69z" />
<glyph unicode="&#xc6;" horiz-adv-x="1832" d="M53 0v82l226 20l823 1127l-225 20v82h970v-327h-82l-20 225h-541v-516h551v-103h-551v-508h541l20 226h82v-328h-970v82l225 20v281h-486l-213 -283l203 -18v-82h-553zM688 487h414v568z" />
<glyph unicode="&#xc7;" horiz-adv-x="1136" d="M53 666q0 133 47 258.5t129 222t202 155t257 58.5q139 0 262.5 -62t212.5 -172v-266h-82l-26 232q-73 76 -169 119.5t-198 43.5q-115 0 -215.5 -50t-168.5 -132.5t-107 -188.5t-39 -218t39 -218t107 -188t168.5 -132t215.5 -50q103 0 198.5 43t168.5 119l26 233h82v-266 q-81 -101 -192.5 -162t-237.5 -70l-65 -229h-103l66 229q-167 15 -301 116.5t-205.5 253.5t-71.5 321z" />
<glyph unicode="&#xc8;" horiz-adv-x="1005" d="M53 0v82l226 20v1127l-226 20v82h971v-327h-82l-20 225h-541v-516h551v-103h-551v-508h541l20 226h82v-328h-971zM311 1698l58 84l376 -271l-34 -49z" />
<glyph unicode="&#xc9;" horiz-adv-x="1005" d="M53 0h971v328h-82l-20 -226h-541v508h551v103h-551v516h541l20 -225h82v327h-971v-82l226 -20v-1127l-226 -20v-82zM373 1511l377 271l57 -84l-399 -236z" />
<glyph unicode="&#xca;" horiz-adv-x="1005" d="M53 0v82l226 20v1127l-226 20v82h971v-327h-82l-20 225h-541v-516h551v-103h-551v-508h541l20 226h82v-328h-971zM168 1511l377 271l377 -271l-35 -49l-342 201l-342 -201z" />
<glyph unicode="&#xcb;" horiz-adv-x="1005" d="M53 0v82l226 20v1127l-226 20v82h971v-327h-82l-20 225h-541v-516h551v-103h-551v-508h541l20 226h82v-328h-971zM276 1624q0 35 25.5 60.5t60.5 25.5t61 -25.5t26 -60.5t-26 -60.5t-61 -25.5t-60.5 25.5t-25.5 60.5zM625 1624q0 35 25.5 60.5t60.5 25.5t60.5 -25.5 t25.5 -60.5t-25.5 -60.5t-60.5 -25.5t-60.5 25.5t-25.5 60.5z" />
<glyph unicode="&#xcc;" horiz-adv-x="604" d="M53 0v82l226 20v1127l-226 20v82h553v-82l-225 -20v-1127l225 -20v-82h-553zM86 1698l57 84l377 -271l-35 -49z" />
<glyph unicode="&#xcd;" horiz-adv-x="604" d="M53 0h553v82l-225 20v1127l225 20v82h-553v-82l226 -20v-1127l-226 -20v-82zM127 1511l377 271l57 -84l-399 -236z" />
<glyph unicode="&#xce;" horiz-adv-x="753" d="M53 1511l377 271l377 -271l-35 -49l-342 201l-342 -201zM143 0v82l226 20v1127l-226 20v82h553v-82l-225 -20v-1127l225 -20v-82h-553z" />
<glyph unicode="&#xcf;" horiz-adv-x="604" d="M53 0v82l226 20v1127l-226 20v82h553v-82l-225 -20v-1127l225 -20v-82h-553zM72 1624q0 35 25.5 60.5t60.5 25.5t60.5 -25.5t25.5 -60.5t-25.5 -60.5t-60.5 -25.5t-60.5 25.5t-25.5 60.5zM420 1624q0 35 25.5 60.5t60.5 25.5t60.5 -25.5t25.5 -60.5t-25.5 -60.5 t-60.5 -25.5t-60.5 25.5t-25.5 60.5z" />
<glyph unicode="&#xd0;" horiz-adv-x="1300" d="M53 0v82l226 20v508h-197v105h197v514l-226 20v82h553q181 0 334 -88.5t242.5 -241.5t89.5 -333q0 -181 -89.5 -334.5t-243 -243.5t-333.5 -90h-553zM381 102h225q153 0 282.5 75.5t205 205.5t75.5 283t-75.5 282.5t-205 205t-282.5 75.5h-225v-514h522v-105h-522v-508z " />
<glyph unicode="&#xd1;" horiz-adv-x="1292" d="M53 0h553v82l-225 20v1022l676 -1124h102v1229l225 20v82h-553v-82l226 -20v-1022l-676 1124h-328v-82l226 -20v-1127l-226 -20v-82zM365 1595q15 30 29.5 53.5t37 48.5t51.5 38.5t62 13.5q45 0 97.5 -30.5t102 -60.5t86.5 -30q34 0 59.5 32.5t65.5 108.5l54 -47 q-16 -33 -29.5 -57.5t-37 -56t-53.5 -49t-63 -17.5q-35 0 -76 19t-72 41.5t-68.5 41.5t-67.5 19q-36 0 -63.5 -26.5t-61.5 -92.5z" />
<glyph unicode="&#xd2;" horiz-adv-x="1351" d="M53 666q0 140 50 268t134.5 221.5t202.5 149t248 55.5t248 -55.5t202.5 -149t134.5 -221.5t50 -268t-50 -268t-134.5 -221t-202.5 -148.5t-248 -55.5t-248 55.5t-202.5 148.5t-134.5 221t-50 268zM158 666q0 -162 72 -298t193.5 -214t264.5 -78t265 78t194 214t72 298 q0 121 -42.5 230.5t-114.5 188t-169.5 124.5t-204.5 46t-204.5 -46t-169 -124.5t-114 -188t-42.5 -230.5zM455 1698l57 84l377 -271l-35 -49z" />
<glyph unicode="&#xd3;" horiz-adv-x="1351" d="M53 666q0 -140 50 -268t134.5 -221t202.5 -148.5t248 -55.5t248 55.5t202.5 148.5t134.5 221t50 268t-50 268t-134.5 221.5t-202.5 149t-248 55.5t-248 -55.5t-202.5 -149t-134.5 -221.5t-50 -268zM158 666q0 121 42.5 230.5t114 188t169 124.5t204.5 46t204.5 -46 t169.5 -124.5t114.5 -188t42.5 -230.5q0 -162 -72 -298t-194 -214t-265 -78t-264.5 78t-193.5 214t-72 298zM496 1511l376 271l58 -84l-400 -236z" />
<glyph unicode="&#xd4;" horiz-adv-x="1351" d="M53 666q0 140 50 268t134.5 221.5t202.5 149t248 55.5t248 -55.5t202.5 -149t134.5 -221.5t50 -268t-50 -268t-134.5 -221t-202.5 -148.5t-248 -55.5t-248 55.5t-202.5 148.5t-134.5 221t-50 268zM158 666q0 -162 72 -298t193.5 -214t264.5 -78t265 78t194 214t72 298 q0 121 -42.5 230.5t-114.5 188t-169.5 124.5t-204.5 46t-204.5 -46t-169 -124.5t-114 -188t-42.5 -230.5zM311 1511l377 271l377 -271l-35 -49l-342 201l-342 -201z" />
<glyph unicode="&#xd5;" horiz-adv-x="1351" d="M53 666q0 140 50 268t134.5 221.5t202.5 149t248 55.5t248 -55.5t202.5 -149t134.5 -221.5t50 -268t-50 -268t-134.5 -221t-202.5 -148.5t-248 -55.5t-248 55.5t-202.5 148.5t-134.5 221t-50 268zM158 666q0 -162 72 -298t193.5 -214t264.5 -78t265 78t194 214t72 298 q0 121 -42.5 230.5t-114.5 188t-169.5 124.5t-204.5 46t-204.5 -46t-169 -124.5t-114 -188t-42.5 -230.5z" />
<glyph unicode="&#xd6;" horiz-adv-x="1351" d="M53 666q0 140 50 268t134.5 221.5t202.5 149t248 55.5t248 -55.5t202.5 -149t134.5 -221.5t50 -268t-50 -268t-134.5 -221t-202.5 -148.5t-248 -55.5t-248 55.5t-202.5 148.5t-134.5 221t-50 268zM158 666q0 -162 72 -298t193.5 -214t264.5 -78t265 78t194 214t72 298 q0 121 -42.5 230.5t-114.5 188t-169.5 124.5t-204.5 46t-204.5 -46t-169 -124.5t-114 -188t-42.5 -230.5zM440 1624q0 35 25.5 60.5t60.5 25.5t60.5 -25.5t25.5 -60.5t-25.5 -60.5t-60.5 -25.5t-60.5 25.5t-25.5 60.5zM788 1624q0 35 25.5 60.5t60.5 25.5t61 -25.5t26 -60.5 t-26 -60.5t-61 -25.5t-60.5 25.5t-25.5 60.5z" />
<glyph unicode="&#xd7;" />
<glyph unicode="&#xd8;" horiz-adv-x="1320" d="M53 666q0 140 50 268t134.5 221.5t202.5 149t248 55.5q245 0 424 -176l72 71l71 -71l-75 -78q143 -192 143 -440q0 -140 -50 -268t-134.5 -221t-202.5 -148.5t-248 -55.5q-128 0 -242 51.5t-202 145.5l-94 -92l-72 72l100 102q-125 183 -125 414zM158 666q0 -189 96 -340 l782 784q-151 145 -348 145q-107 0 -204.5 -46t-169 -124.5t-114 -188t-42.5 -230.5zM317 244q73 -79 169 -123.5t202 -44.5q143 0 265 78t194 214t72 298q0 206 -115 366z" />
<glyph unicode="&#xd9;" horiz-adv-x="1275" d="M53 1249l226 -20v-828q0 -180 126 -305t306 -125t306 125t126 305v828l225 20v82h-553v-82l225 -20v-828q0 -137 -96 -233t-233 -96t-233.5 96.5t-96.5 232.5v828l225 20v82h-553v-82zM434 1698l58 84l376 -271l-34 -49z" />
<glyph unicode="&#xda;" horiz-adv-x="1275" d="M53 1249v82h553v-82l-225 -20v-828q0 -136 96.5 -232.5t233.5 -96.5t233 96t96 233v828l-225 20v82h553v-82l-225 -20v-828q0 -180 -126 -305t-306 -125t-306 125t-126 305v828zM598 1511l377 271l57 -84l-399 -236z" />
<glyph unicode="&#xdb;" horiz-adv-x="1275" d="M53 1249l226 -20v-828q0 -180 126 -305t306 -125t306 125t126 305v828l225 20v82h-553v-82l225 -20v-828q0 -137 -96 -233t-233 -96t-233.5 96.5t-96.5 232.5v828l225 20v82h-553v-82zM332 1511l377 271l376 -271l-34 -49l-342 201l-342 -201z" />
<glyph unicode="&#xdc;" horiz-adv-x="1275" d="M53 1249l226 -20v-828q0 -180 126 -305t306 -125t306 125t126 305v828l225 20v82h-553v-82l225 -20v-828q0 -137 -96 -233t-233 -96t-233.5 96.5t-96.5 232.5v828l225 20v82h-553v-82zM461 1624q0 35 25.5 60.5t60.5 25.5t60.5 -25.5t25.5 -60.5t-25.5 -60.5t-60.5 -25.5 t-60.5 25.5t-25.5 60.5zM809 1624q0 35 25.5 60.5t60.5 25.5t60.5 -25.5t25.5 -60.5t-25.5 -60.5t-60.5 -25.5t-60.5 25.5t-25.5 60.5z" />
<glyph unicode="&#xdd;" horiz-adv-x="1273" d="M53 1249l223 -22l357 -561v-564l-225 -20v-82h553v82l-226 20v564l357 561l223 22v82h-553v-82l211 -20l-289 -453l-289 453l211 20v82h-553v-82zM618 1511l377 271l58 -84l-400 -236z" />
<glyph unicode="&#xde;" horiz-adv-x="976" d="M53 0v82l226 20v1127l-226 20v82h553v-82l-225 -20v-205h225q149 0 254 -104.5t105 -253.5t-105 -254t-254 -105h-225v-205l225 -20v-82h-553zM381 410h225q106 0 181 75t75 181t-75 181t-181 75h-225v-512z" />
<glyph unicode="&#xdf;" horiz-adv-x="1038" d="M84 0v1077q0 102 61.5 185.5t154.5 127.5t194 44q69 0 134.5 -14t125.5 -44.5t96.5 -86t36.5 -130.5q0 -58 -21 -111t-50.5 -92t-59.5 -75t-51 -76t-21 -80t34 -81t82.5 -80t97 -83.5t82.5 -107.5t34 -135q0 -131 -85 -199t-220 -68q-92 0 -187 29v266h82l19 -188 q43 -6 86 -6q89 0 145.5 40.5t56.5 125.5q0 46 -18 87t-47 71.5t-64.5 59t-70.5 57t-64 58.5t-47 69.5t-18 84.5q0 50 21 98t50.5 87t59 77t50.5 82.5t21 89.5q0 49 -29 85t-76 53.5t-92.5 25.5t-90.5 8q-73 0 -144 -30t-120.5 -90.5t-49.5 -135.5v-1075h-98z" />
<glyph unicode="&#xe0;" horiz-adv-x="1083" d="M53 315q0 97 56.5 177.5t149.5 125t200 44.5q87 0 165 -30t136 -85v59q0 98 -86 171t-215 73q-75 0 -140 -27.5t-106 -74.5l-78 67q58 64 143 100.5t181 36.5q164 0 283.5 -99.5t119.5 -246.5v-291v-213l203 -20v-82h-305v84q-119 -113 -301 -113q-165 0 -285.5 99 t-120.5 245zM156 315q0 -98 87 -170.5t216 -72.5t215 72.5t86 170.5t-86 171t-215 73t-216 -73t-87 -171zM229 1350l58 84l377 -271l-35 -49z" />
<glyph unicode="&#xe1;" horiz-adv-x="1083" d="M53 315q0 -146 120.5 -245t285.5 -99q182 0 301 113v-84h305v82l-203 20v213v291q0 147 -119.5 246.5t-283.5 99.5q-96 0 -181 -36.5t-143 -100.5l78 -67q41 47 106 74.5t140 27.5q129 0 215 -73t86 -171v-59q-58 55 -136 85t-165 30q-107 0 -200 -44.5t-149.5 -125 t-56.5 -177.5zM156 315q0 98 87 171t216 73t215 -73t86 -171t-86 -170.5t-215 -72.5t-216 72.5t-87 170.5zM291 1163l377 271l57 -84l-399 -236z" />
<glyph unicode="&#xe2;" horiz-adv-x="1083" d="M53 315q0 97 56.5 177.5t149.5 125t200 44.5q87 0 165 -30t136 -85v59q0 98 -86 171t-215 73q-75 0 -140 -27.5t-106 -74.5l-78 67q58 64 143 100.5t181 36.5q164 0 283.5 -99.5t119.5 -246.5v-291v-213l203 -20v-82h-305v84q-119 -113 -301 -113q-165 0 -285.5 99 t-120.5 245zM106 1163l377 271l377 -271l-35 -49l-342 201l-342 -201zM156 315q0 -98 87 -170.5t216 -72.5t215 72.5t86 170.5t-86 171t-215 73t-216 -73t-87 -171z" />
<glyph unicode="&#xe3;" horiz-adv-x="1083" d="M53 315q0 97 56.5 177.5t149.5 125t200 44.5q87 0 165 -30t136 -85v59q0 98 -86 171t-215 73q-75 0 -140 -27.5t-106 -74.5l-78 67q58 64 143 100.5t181 36.5q164 0 283.5 -99.5t119.5 -246.5v-291v-213l203 -20v-82h-305v84q-119 -113 -301 -113q-165 0 -285.5 99 t-120.5 245zM156 315q0 -98 87 -170.5t216 -72.5t215 72.5t86 170.5t-86 171t-215 73t-216 -73t-87 -171z" />
<glyph unicode="&#xe4;" horiz-adv-x="1083" d="M53 315q0 97 56.5 177.5t149.5 125t200 44.5q87 0 165 -30t136 -85v59q0 98 -86 171t-215 73q-75 0 -140 -27.5t-106 -74.5l-78 67q58 64 143 100.5t181 36.5q164 0 283.5 -99.5t119.5 -246.5v-291v-213l203 -20v-82h-305v84q-119 -113 -301 -113q-165 0 -285.5 99 t-120.5 245zM156 315q0 -98 87 -170.5t216 -72.5t215 72.5t86 170.5t-86 171t-215 73t-216 -73t-87 -171zM236 1276q0 35 25.5 60.5t60.5 25.5t60.5 -25.5t25.5 -60.5t-25.5 -60.5t-60.5 -25.5t-60.5 25.5t-25.5 60.5zM584 1276q0 35 25.5 60.5t60.5 25.5t60.5 -25.5 t25.5 -60.5t-25.5 -60.5t-60.5 -25.5t-60.5 25.5t-25.5 60.5z" />
<glyph unicode="&#xe5;" horiz-adv-x="1083" d="M53 315q0 97 56.5 177.5t149.5 125t200 44.5q87 0 165 -30t136 -85v59q0 98 -86 171t-215 73q-75 0 -140 -27.5t-106 -74.5l-78 67q58 64 143 100.5t181 36.5q164 0 283.5 -99.5t119.5 -246.5v-291v-213l203 -20v-82h-305v84q-119 -113 -301 -113q-165 0 -285.5 99 t-120.5 245zM156 315q0 -98 87 -170.5t216 -72.5t215 72.5t86 170.5t-86 171t-215 73t-216 -73t-87 -171zM293 1303q0 77 54.5 131.5t131.5 54.5t132 -55t55 -131q0 -77 -55 -132t-132 -55q-76 0 -131 55t-55 132zM381 1303q0 -40 29 -68.5t69 -28.5t69.5 28.5t29.5 68.5 t-29.5 69t-69.5 29t-69 -29t-29 -69z" />
<glyph unicode="&#xe6;" horiz-adv-x="1658" d="M53 315q0 97 56.5 177.5t149.5 125t200 44.5q87 0 165 -30t136 -85v59q0 98 -86 171t-215 73q-75 0 -140 -27.5t-106 -74.5l-78 67q58 64 143 100.5t181 36.5q126 0 230.5 -62t148.5 -163q69 104 183 165.5t247 61.5q139 0 256.5 -65.5t185.5 -178.5t68 -247h-916v-47 q20 -144 138 -243t268 -99q157 0 274 104l74 -76q-145 -129 -348 -129q-122 0 -228 51t-178 140v-164h-102v84q-119 -113 -301 -113q-165 0 -285.5 99t-120.5 245zM156 315q0 -98 87 -170.5t216 -72.5t215 72.5t86 170.5t-86 171t-215 73t-216 -73t-87 -171zM874 563h787 q-37 125 -147.5 206t-245.5 81t-246 -81t-148 -206z" />
<glyph unicode="&#xe7;" horiz-adv-x="952" d="M53 461q0 136 70.5 249.5t188 177.5t253.5 64q218 0 389 -174l-2 -268h-82l-26 231q-122 109 -279 109q-105 0 -199 -51.5t-152 -141.5t-58 -196t58 -196t152 -141.5t199 -51.5q159 0 281 112l76 -75q-130 -120 -306 -136l-59 -194h-102l59 194q-192 19 -326.5 157.5 t-134.5 330.5z" />
<glyph unicode="&#xe8;" horiz-adv-x="1003" d="M53 463q0 134 68.5 247t186.5 178.5t257 65.5t256.5 -65.5t185.5 -178.5t68 -247h-919q0 -159 123 -274t286 -115q156 0 273 104l75 -76q-145 -129 -348 -129q-139 0 -257 65.5t-186.5 178t-68.5 246.5zM170 563h788q-37 125 -147.5 206t-245.5 81t-246.5 -81 t-148.5 -206zM319 1350l58 84l377 -271l-35 -49z" />
<glyph unicode="&#xe9;" horiz-adv-x="1003" d="M53 463q0 -134 68.5 -246.5t186.5 -178t257 -65.5q203 0 348 129l-75 76q-117 -104 -273 -104q-163 0 -286 115t-123 274h919q0 134 -68 247t-185.5 178.5t-256.5 65.5t-257 -65.5t-186.5 -178.5t-68.5 -247zM170 563q37 125 148.5 206t246.5 81t245.5 -81t147.5 -206 h-788zM340 1163l377 271l57 -84l-399 -236z" />
<glyph unicode="&#xea;" horiz-adv-x="1003" d="M53 463q0 134 68.5 247t186.5 178.5t257 65.5t256.5 -65.5t185.5 -178.5t68 -247h-919q0 -159 123 -274t286 -115q156 0 273 104l75 -76q-145 -129 -348 -129q-139 0 -257 65.5t-186.5 178t-68.5 246.5zM170 563h788q-37 125 -147.5 206t-245.5 81t-246.5 -81 t-148.5 -206zM188 1163l377 271l377 -271l-35 -49l-342 201l-342 -201z" />
<glyph unicode="&#xeb;" horiz-adv-x="1003" d="M53 463q0 134 68.5 247t186.5 178.5t257 65.5t256.5 -65.5t185.5 -178.5t68 -247h-919q0 -159 123 -274t286 -115q156 0 273 104l75 -76q-145 -129 -348 -129q-139 0 -257 65.5t-186.5 178t-68.5 246.5zM170 563h788q-37 125 -147.5 206t-245.5 81t-246.5 -81 t-148.5 -206zM297 1276q0 35 25.5 60.5t60.5 25.5t60.5 -25.5t25.5 -60.5t-25.5 -60.5t-60.5 -25.5t-60.5 25.5t-25.5 60.5zM645 1276q0 35 25.5 60.5t60.5 25.5t60.5 -25.5t25.5 -60.5t-25.5 -60.5t-60.5 -25.5t-60.5 25.5t-25.5 60.5z" />
<glyph unicode="&#xec;" horiz-adv-x="604" d="M53 1350l58 84l376 -271l-34 -49zM94 840v82h328v-820l225 -20v-82h-328v819z" />
<glyph unicode="&#xed;" horiz-adv-x="565" d="M53 840l226 -21v-819h327v82l-225 20v820h-328v-82zM80 1165l377 271l57 -84l-399 -236z" />
<glyph unicode="&#xee;" horiz-adv-x="753" d="M53 1163l377 271l377 -271l-35 -49l-342 201l-342 -201zM164 840v82h328v-820l225 -20v-82h-328v819z" />
<glyph unicode="&#xef;" horiz-adv-x="593" d="M53 1276q0 35 25.5 60.5t60.5 25.5t60.5 -25.5t25.5 -60.5t-25.5 -60.5t-60.5 -25.5t-60.5 25.5t-25.5 60.5zM55 840v82h328v-820l225 -20v-82h-327v819zM401 1276q0 35 25.5 60.5t60.5 25.5t60.5 -25.5t25.5 -60.5t-25.5 -60.5t-60.5 -25.5t-60.5 25.5t-25.5 60.5z" />
<glyph unicode="&#xf0;" horiz-adv-x="829" d="M0 444q0 120 51 228t149 178t220 70q159 0 278 -119q-58 225 -225 389l-123 -117l-69 76l116 108q-69 55 -159 107l53 90q105 -63 180 -127l115 107l69 -76l-106 -98q154 -153 222.5 -351t68.5 -465q0 -120 -51 -227.5t-149 -176.5t-220 -69t-220 69t-149 176.5 t-51 227.5zM102 444q0 -92 37.5 -176t112 -140t168.5 -56q93 0 168 56t112.5 140t36.5 176q-1 93 -37.5 176.5t-110.5 140t-169 56.5q-94 0 -168.5 -56t-112 -140.5t-37.5 -176.5z" />
<glyph unicode="&#xf1;" horiz-adv-x="1222" d="M53 840v82h328v-164q73 92 178.5 143t222.5 51q56 0 100.5 -8.5t76 -24.5t54 -39t36 -52.5t22 -64.5t11 -75t3.5 -84t0 -91v-52v-359l226 -20v-82h-328v461v50q1 36 0.5 70t-2 64.5t-7.5 57.5t-14.5 50t-24 41t-36 30.5t-50 19t-67.5 6.5q-73 0 -141 -20.5t-113 -50 t-80 -58.5t-51 -49l-16 -21v-549l225 -20v-82h-327v819zM311 1198q75 154 181 154q36 0 77 -19t72 -41.5t69 -41.5t68 -19q34 0 59.5 32.5t65.5 108.5l53 -47q-16 -34 -29.5 -57.5t-37 -55.5t-53 -49.5t-62.5 -17.5q-36 0 -77 19t-72 41.5t-68.5 41.5t-67.5 19 q-36 0 -62.5 -26.5t-61.5 -92.5z" />
<glyph unicode="&#xf2;" horiz-adv-x="1003" d="M53 461q0 134 68.5 247t186.5 178.5t257 65.5t256.5 -65.5t185.5 -178.5t68 -247t-68 -246.5t-185.5 -178t-256.5 -65.5t-257 65.5t-186.5 178t-68.5 246.5zM156 461q0 -159 123 -274t286 -115q106 0 200 52t151 142t57 195t-57 195t-151 142t-200 52q-163 0 -286 -115 t-123 -274zM299 1350l57 84l377 -271l-35 -49z" />
<glyph unicode="&#xf3;" horiz-adv-x="1003" d="M53 461q0 -134 68.5 -246.5t186.5 -178t257 -65.5t256.5 65.5t185.5 178t68 246.5t-68 247t-185.5 178.5t-256.5 65.5t-257 -65.5t-186.5 -178.5t-68.5 -247zM156 461q0 159 123 274t286 115q106 0 200 -52t151 -142t57 -195t-57 -195t-151 -142t-200 -52 q-163 0 -286 115t-123 274zM426 1163l377 271l57 -84l-399 -236z" />
<glyph unicode="&#xf4;" horiz-adv-x="1003" d="M53 461q0 134 68.5 247t186.5 178.5t257 65.5t256.5 -65.5t185.5 -178.5t68 -247t-68 -246.5t-185.5 -178t-256.5 -65.5t-257 65.5t-186.5 178t-68.5 246.5zM156 461q0 -159 123 -274t286 -115q106 0 200 52t151 142t57 195t-57 195t-151 142t-200 52q-163 0 -286 -115 t-123 -274zM188 1163l377 271l377 -271l-35 -49l-342 201l-342 -201z" />
<glyph unicode="&#xf5;" horiz-adv-x="1003" d="M53 461q0 134 68.5 247t186.5 178.5t257 65.5t256.5 -65.5t185.5 -178.5t68 -247t-68 -246.5t-185.5 -178t-256.5 -65.5t-257 65.5t-186.5 178t-68.5 246.5zM156 461q0 -159 123 -274t286 -115q106 0 200 52t151 142t57 195t-57 195t-151 142t-200 52q-163 0 -286 -115 t-123 -274zM229 1157q75 154 181 154q45 0 97.5 -30.5t102 -60.5t86.5 -30q34 0 59.5 32.5t65.5 108.5l53 -47q-16 -34 -29.5 -57.5t-37 -55.5t-53 -49.5t-62.5 -17.5q-36 0 -76.5 19t-71.5 41.5t-68.5 41.5t-67.5 19q-36 0 -63.5 -26.5t-61.5 -92.5z" />
<glyph unicode="&#xf6;" horiz-adv-x="1003" d="M53 461q0 134 68.5 247t186.5 178.5t257 65.5t256.5 -65.5t185.5 -178.5t68 -247t-68 -246.5t-185.5 -178t-256.5 -65.5t-257 65.5t-186.5 178t-68.5 246.5zM156 461q0 -159 123 -274t286 -115q106 0 200 52t151 142t57 195t-57 195t-151 142t-200 52q-163 0 -286 -115 t-123 -274zM297 1276q0 35 25.5 60.5t60.5 25.5t60.5 -25.5t25.5 -60.5t-25.5 -60.5t-60.5 -25.5t-60.5 25.5t-25.5 60.5zM645 1276q0 35 25.5 60.5t60.5 25.5t60.5 -25.5t25.5 -60.5t-25.5 -60.5t-60.5 -25.5t-60.5 25.5t-25.5 60.5z" />
<glyph unicode="&#xf7;" />
<glyph unicode="&#xf8;" horiz-adv-x="1067" d="M0 461q0 134 68.5 247t186.5 178.5t257 65.5q168 0 303 -96l84 82l72 -72l-78 -78q129 -139 129 -327q0 -134 -68 -246.5t-185.5 -178t-256.5 -65.5q-186 0 -326 111l-82 -82l-71 72l80 80q-113 136 -113 309zM102 461q0 -127 86 -234l551 553q-106 70 -227 70 q-163 0 -286.5 -115t-123.5 -274zM262 156q111 -84 250 -84q106 0 200 52t151 142t57 195q0 139 -101 252z" />
<glyph unicode="&#xf9;" horiz-adv-x="1222" d="M53 840v82h328v-461v-50q-1 -36 -0.5 -70t2 -64.5t7.5 -57.5t14.5 -50t24 -41t36 -30.5t50 -19t67.5 -6.5q73 0 141 20.5t113 49.5t80 58t51 50l16 20v549l-225 21v82h327v-820l226 -20v-82h-328v164q-73 -92 -178.5 -142.5t-222.5 -50.5q-56 0 -100.5 8.5t-76 24.5 t-54 39t-36 52t-22 64t-11 75t-3.5 84t0 91v52v358zM319 1350l58 84l377 -271l-35 -49z" />
<glyph unicode="&#xfa;" horiz-adv-x="1222" d="M53 840l226 -21v-358q0 -189 4 -234q14 -145 89 -203q70 -53 210 -53q117 0 222.5 50.5t178.5 142.5v-164h328v82l-226 20v820h-327v-82l225 -21v-549q-6 -8 -17 -21.5t-49.5 -47.5t-81.5 -60t-111.5 -47.5t-141.5 -21.5q-43 0 -75.5 8.5t-54 25t-36 39.5t-21.5 51.5 t-10.5 62.5t-3.5 72.5v79.5v50v461h-328v-82zM467 1163l377 271l57 -84l-399 -236z" />
<glyph unicode="&#xfb;" horiz-adv-x="1222" d="M53 840v82h328v-461v-50q-1 -36 -0.5 -70t2 -64.5t7.5 -57.5t14.5 -50t24 -41t36 -30.5t50 -19t67.5 -6.5q73 0 141 20.5t113 49.5t80 58t51 50l16 20v549l-225 21v82h327v-820l226 -20v-82h-328v164q-73 -92 -178.5 -142.5t-222.5 -50.5q-56 0 -100.5 8.5t-76 24.5 t-54 39t-36 52t-22 64t-11 75t-3.5 84t0 91v52v358zM229 1163l377 271l377 -271l-35 -49l-342 201l-342 -201z" />
<glyph unicode="&#xfc;" horiz-adv-x="1222" d="M53 840v82h328v-461v-50q-1 -36 -0.5 -70t2 -64.5t7.5 -57.5t14.5 -50t24 -41t36 -30.5t50 -19t67.5 -6.5q73 0 141 20.5t113 49.5t80 58t51 50l16 20v549l-225 21v82h327v-820l226 -20v-82h-328v164q-73 -92 -178.5 -142.5t-222.5 -50.5q-56 0 -100.5 8.5t-76 24.5 t-54 39t-36 52t-22 64t-11 75t-3.5 84t0 91v52v358zM379 1276q0 35 25.5 60.5t60.5 25.5t60.5 -25.5t25.5 -60.5t-25.5 -60.5t-60.5 -25.5t-60.5 25.5t-25.5 60.5zM727 1276q0 35 25.5 60.5t60.5 25.5t60.5 -25.5t25.5 -60.5t-25.5 -60.5t-60.5 -25.5t-60.5 25.5t-25.5 60.5 z" />
<glyph unicode="&#xfd;" horiz-adv-x="1028" d="M53 840l201 -27l371 -813l-258 -612h370v82l-221 20l215 510l369 813l2 109h-314v-82l201 -27l-311 -694l-359 803h-266v-82zM475 1163l377 271l57 -84l-399 -236z" />
<glyph unicode="&#xfe;" horiz-adv-x="911" d="M53 1352v82h328v-379h219q128 0 217.5 -89.5t89.5 -217.5t-90 -218t-217 -90h-219v-338l225 -20v-82h-327v1331zM381 543h219q85 0 145 60t60 145t-60 144.5t-145 59.5h-219v-409z" />
<glyph unicode="&#xff;" horiz-adv-x="1028" d="M53 840v82h266l359 -803l311 694l-201 27v82h314l-2 -109l-369 -813l-215 -510l221 -20v-82h-370l258 612l-371 813zM338 1276q0 35 25.5 60.5t60.5 25.5t60.5 -25.5t25.5 -60.5t-25.5 -60.5t-60.5 -25.5t-60.5 25.5t-25.5 60.5zM686 1276q0 35 25.5 60.5t60.5 25.5 t60.5 -25.5t25.5 -60.5t-25.5 -60.5t-60.5 -25.5t-60.5 25.5t-25.5 60.5z" />
<glyph unicode="&#x152;" horiz-adv-x="1665" d="M53 666q0 183 60.5 341.5t173 256.5t250.5 98q118 0 216 -71t165 -195v235h745v-327h-82l-20 225h-541v-516h551v-103h-551v-508h541l20 226h82v-328h-745v236q-67 -124 -165 -194.5t-216 -70.5q-104 0 -195.5 57.5t-154 153t-98.5 222t-36 262.5zM156 666 q0 -127 32.5 -239t85.5 -189t122 -121.5t141 -44.5t141 44.5t122 121.5t85.5 189t32.5 239t-32.5 239t-85.5 189t-122 121.5t-141 44.5t-141 -44.5t-122 -121.5t-85.5 -189t-32.5 -239z" />
<glyph unicode="&#x153;" horiz-adv-x="1859" d="M53 461q0 136 70.5 249.5t188 177.5t253.5 64q144 0 267.5 -73.5t189.5 -200.5q65 128 191 202t270 74q136 0 253 -64t187 -177.5t70 -249.5h-918v-31q-3 -95 60.5 -179.5t158.5 -131.5t189 -47q152 0 272 104l76 -76q-69 -63 -160 -96t-188 -33q-144 0 -269 73.5 t-190 199.5q-65 -128 -190 -201.5t-269 -73.5q-136 0 -253.5 63.5t-188 177t-70.5 249.5zM156 461q0 -106 58 -196t152 -141.5t199 -51.5q93 0 186.5 47t156.5 132t63 181v60q0 95 -63 179.5t-156.5 131.5t-186.5 47q-105 0 -199 -51.5t-152 -141.5t-58 -196zM1087 563h789 q-38 126 -149.5 206.5t-243.5 80.5t-245 -80.5t-151 -206.5z" />
<glyph unicode="&#x178;" horiz-adv-x="1273" d="M53 1249v82h553v-82l-211 -20l289 -453l289 453l-211 20v82h553v-82l-223 -22l-357 -561v-564l226 -20v-82h-553v82l225 20v564l-357 561zM420 1624q0 35 25.5 60.5t60.5 25.5t60.5 -25.5t25.5 -60.5t-25.5 -60.5t-60.5 -25.5t-60.5 25.5t-25.5 60.5zM768 1624 q0 35 25.5 60.5t60.5 25.5t60.5 -25.5t25.5 -60.5t-25.5 -60.5t-60.5 -25.5t-60.5 25.5t-25.5 60.5z" />
<glyph unicode="&#x2c6;" horiz-adv-x="806" d="M53 1163l377 271l377 -271l-35 -49l-342 201l-342 -201z" />
<glyph unicode="&#x2dc;" horiz-adv-x="821" d="M147 1096q74 153 181 153q45 0 97.5 -30.5t102 -60.5t86.5 -30q33 0 59 32.5t66 109.5l54 -47q-12 -26 -22 -45t-28.5 -46.5t-36.5 -45.5t-43.5 -31t-52.5 -13q-35 0 -76 19t-72 41.5t-68.5 41.5t-67.5 19q-36 0 -63.5 -26.5t-61.5 -92.5z" />
<glyph unicode="&#x2000;" horiz-adv-x="903" />
<glyph unicode="&#x2001;" horiz-adv-x="1806" />
<glyph unicode="&#x2002;" horiz-adv-x="903" />
<glyph unicode="&#x2003;" horiz-adv-x="1806" />
<glyph unicode="&#x2004;" horiz-adv-x="602" />
<glyph unicode="&#x2005;" horiz-adv-x="451" />
<glyph unicode="&#x2006;" horiz-adv-x="301" />
<glyph unicode="&#x2007;" horiz-adv-x="301" />
<glyph unicode="&#x2008;" horiz-adv-x="225" />
<glyph unicode="&#x2009;" horiz-adv-x="361" />
<glyph unicode="&#x200a;" horiz-adv-x="100" />
<glyph unicode="&#x2010;" horiz-adv-x="794" d="M287 561v105h565v-105h-565z" />
<glyph unicode="&#x2011;" horiz-adv-x="794" d="M287 561v105h565v-105h-565z" />
<glyph unicode="&#x2012;" horiz-adv-x="794" d="M287 561v105h565v-105h-565z" />
<glyph unicode="&#x2013;" horiz-adv-x="794" d="M287 561v105h565v-105h-565z" />
<glyph unicode="&#x2014;" horiz-adv-x="1130" d="M287 561v105h923v-105h-923z" />
<glyph unicode="&#x2018;" horiz-adv-x="270" d="M176 1124h103l10 -202h-82z" />
<glyph unicode="&#x2019;" horiz-adv-x="317" d="M227 922l11 202h102l-31 -202h-82z" />
<glyph unicode="&#x201a;" horiz-adv-x="266" d="M96 -29l10 201h82l11 -201h-103z" />
<glyph unicode="&#x201c;" horiz-adv-x="462" d="M115 1124h102l35 -202h-82zM279 1124h102l10 -202h-82z" />
<glyph unicode="&#x201d;" horiz-adv-x="425" d="M115 922l10 202h102l-30 -202h-82zM254 922l35 202h102l-55 -202h-82z" />
<glyph unicode="&#x201e;" horiz-adv-x="409" d="M61 -29l31 201h82l-10 -201h-103zM236 172h81l31 -201h-102z" />
<glyph unicode="&#x2022;" horiz-adv-x="342" d="M53 664q0 64 46.5 109.5t111.5 45.5t110.5 -45.5t45.5 -109.5q0 -65 -46 -111.5t-110 -46.5q-65 0 -111.5 47t-46.5 111z" />
<glyph unicode="&#x2026;" horiz-adv-x="811" d="M0 59q0 37 26 64t62 27q37 0 63.5 -27t26.5 -64t-26.5 -62.5t-63.5 -25.5t-62.5 25.5t-25.5 62.5zM281 59q0 37 26.5 64t63.5 27t63.5 -27t26.5 -64t-26.5 -62.5t-63.5 -25.5t-63.5 25.5t-26.5 62.5zM563 59q0 37 26.5 64t63.5 27t63.5 -27t26.5 -64t-26.5 -62.5 t-63.5 -25.5t-63.5 25.5t-26.5 62.5z" />
<glyph unicode="&#x202f;" horiz-adv-x="361" />
<glyph unicode="&#x2039;" horiz-adv-x="356" d="M0 377l270 377l49 -35l-200 -342l200 -342l-49 -35z" />
<glyph unicode="&#x203a;" horiz-adv-x="299" d="M0 35l201 342l-201 342l49 35l270 -377l-270 -377z" />
<glyph unicode="&#x205f;" horiz-adv-x="451" />
<glyph unicode="&#x20ac;" horiz-adv-x="927" d="M0 487l61 105h654l-62 -105h-653zM16 741l62 105h719l-62 -105h-719zM131 666q0 183 60.5 341.5t172.5 256.5t250 98q115 0 211.5 -68.5t163.5 -187.5h-121q-53 73 -119.5 113.5t-134.5 40.5q-72 0 -141 -44.5t-122 -121.5t-85.5 -189t-32.5 -239t32.5 -239t85.5 -189 t122 -121.5t141 -44.5q69 0 135 40t119 113h121q-66 -119 -162.5 -186.5t-212.5 -67.5q-138 0 -250 97.5t-172.5 256t-60.5 341.5z" />
<glyph unicode="&#xe000;" horiz-adv-x="921" d="M0 0v922h922v-922h-922z" />
</font>
</defs>
</svg>
