<?xml version="1.0" standalone="no"?>
<!DOCTYPE svg PUBLIC "-//W3C//DTD SVG 1.1//EN" "http://www.w3.org/Graphics/SVG/1.1/DTD/svg11.dtd" >
<svg xmlns="http://www.w3.org/2000/svg">
<metadata></metadata>
<defs>
<font id="neovix_basicregular" horiz-adv-x="508" >
<font-face units-per-em="2048" ascent="1638" descent="-410" />
<missing-glyph horiz-adv-x="500" />
<glyph unicode="&#xd;" />
<glyph horiz-adv-x="0" />
<glyph horiz-adv-x="0" />
<glyph unicode=" " />
<glyph unicode="A" horiz-adv-x="1291" d="M49 0v37l471 1400h204l471 -1400v-37h-173l-127 375l-546 -1l-127 -374h-173zM409 551l426 -1l-213 626z" />
<glyph unicode="B" horiz-adv-x="1319" d="M154 0v1430h561q100 -2 187 -50q85 -46 140 -126q73 -104 73 -233q0 -119 -63 -219q-31 -49 -75 -87q44 -38 75 -88q63 -100 63 -218q0 -129 -73 -234q-56 -80 -142 -127q-89 -48 -191 -48h-555zM330 176l377 -1h3q95 2 162 69q68 69 68 165q0 70 -40 129q-38 58 -102 85 q-3 2 -10 4h-458v-451zM330 803l377 -1h81q3 2 10 5q64 27 102 84q40 59 40 130q0 94 -65 161q-63 67 -156 72h-389v-451z" />
<glyph unicode="C" horiz-adv-x="1395" d="M68 715q0 299 195 505q198 210 491 210q298 0 508 -212l-124 -124q-158 160 -384 160q-220 0 -367 -158q-143 -155 -143 -381q0 -227 143 -381q147 -158 367 -158q226 0 384 160l124 -124q-210 -212 -508 -212q-293 0 -491 210q-195 206 -195 505z" />
<glyph unicode="D" horiz-adv-x="1417" d="M155 0v1430h372q261 -4 459 -176q115 -100 179 -238q67 -142 67 -301t-67 -302q-64 -138 -180 -238q-200 -174 -465 -175h-365zM331 176l186 -1v1q223 0 381 158q158 157 158 381q0 223 -158 381t-381 158h-186v-1078z" />
<glyph unicode="E" horiz-adv-x="1291" d="M154 0l1 1437h175l790 -1v-175h-790v-454l761 -1v-176h-761v-454h790v-176h-966z" />
<glyph unicode="F" horiz-adv-x="1238" d="M155 0l1 1440h176l791 -1v-176h-791v-455h718v-176h-718v-632h-177z" />
<glyph unicode="G" horiz-adv-x="1536" d="M80 715q0 302 181 505q186 210 476 210q233 0 395 -145q148 -132 218 -365h-186q-66 160 -159 241q-109 93 -268 93q-217 0 -352 -158q-129 -151 -129 -381t129 -381q135 -158 352 -158q159 0 268 93q93 81 159 241h-389v176l429 -1h175q-3 -90 -29 -175 q-70 -234 -218 -366q-162 -144 -395 -144q-290 0 -476 210q-181 203 -181 505z" />
<glyph unicode="H" horiz-adv-x="1407" d="M156 0l1 1434h175v-629h656v629h175v-1434h-176l1 614h-656v-614h-176z" />
<glyph unicode="I" horiz-adv-x="578" d="M156 0v1440h177v-1440h-177z" />
<glyph unicode="J" horiz-adv-x="1083" d="M47 298l169 46q20 -74 82 -121q63 -48 142 -48q93 0 160 64t72 157v1031h175v-1021q0 -102 -48 -191q-47 -87 -127 -142q-104 -73 -232 -73q-139 0 -249 85q-108 83 -144 213z" />
<glyph unicode="K" horiz-adv-x="1188" d="M156 0v1430h176v-625l562 625l217 -1v-28l-624 -686l624 -691v-23l-217 -1l-562 625v-625h-176z" />
<glyph unicode="L" horiz-adv-x="1234" d="M155 0v1430h175l1 -1254l785 -1v-175h-961z" />
<glyph unicode="M" horiz-adv-x="1542" d="M156 0v1430h172l4 -6l394 -675l395 675l3 6h173v-1430h-175l-1 1072l-335 -562h-120l-334 562l-1 -1072h-175z" />
<glyph unicode="N" horiz-adv-x="1508" d="M156 0l1 1434h187l745 -1075v1075h175v-1434h-187l-745 1075v-1075h-176z" />
<glyph unicode="O" horiz-adv-x="1551" d="M76 715q0 304 173 505q181 210 470 210t469 -210q174 -201 174 -505t-174 -506q-180 -209 -469 -209t-470 209q-173 202 -173 506zM252 715q0 -232 122 -381q128 -158 345 -158q216 0 345 158q122 149 122 381t-122 381q-129 158 -345 158q-217 0 -345 -158 q-122 -149 -122 -381z" />
<glyph unicode="P" horiz-adv-x="1303" d="M156 0v1430h475q218 0 361 -121q149 -126 149 -332q0 -207 -149 -339q-145 -129 -361 -129h-299v-509h-176zM332 685h299q144 0 237 77q98 80 98 215q0 133 -98 208q-91 69 -237 69v1l-299 -1v-569z" />
<glyph unicode="Q" horiz-adv-x="1574" d="M81 715q0 304 173 505q181 210 470 210t469 -210q174 -201 174 -505q0 -222 -98 -397q111 -140 111 -318h-176q0 92 -47 171q-175 -171 -433 -171q-289 0 -470 209q-173 202 -173 506zM257 715q0 -232 122 -381q128 -158 345 -158q184 0 307 117q-75 42 -162 42v176 q143 0 264 -74q58 124 58 278q0 232 -122 381q-129 158 -345 158q-217 0 -345 -158q-122 -149 -122 -381z" />
<glyph unicode="R" horiz-adv-x="1332" d="M156 0v1430h475q218 0 361 -121q149 -126 149 -332q0 -137 -68 -246q-66 -103 -182 -162q25 -27 47 -59q10 -14 21 -32l226 -476h-194l-190 400q-67 107 -165 107v1h-3l-2 -1h-299v-509h-176zM332 685h299q144 0 237 77q98 80 98 215q0 133 -98 208q-91 69 -237 69v1 l-299 -1v-569z" />
<glyph unicode="S" horiz-adv-x="1176" d="M61 185l183 120q83 -125 270 -128h7q128 0 215 67q88 67 88 163q0 98 -111 159q-45 25 -246 92q-170 57 -247 121q-113 92 -115 243v5q0 194 156 307q140 100 348 100q242 0 391 -140l-192 -116q-65 92 -239 93h-7q-128 0 -203 -68q-71 -64 -71 -164q0 -89 115 -149 q39 -20 250 -92q171 -59 248 -123q107 -90 107 -230v-10q-7 -210 -153 -327q-135 -108 -347 -108q-291 0 -447 185z" />
<glyph unicode="T" horiz-adv-x="1017" d="M20 1254v176h578l402 -1v-175h-402v-1254h-176l1 1254h-403z" />
<glyph unicode="U" horiz-adv-x="1364" d="M139 497v933h175l1 -919q0 -139 97 -237q99 -98 237 -98q139 0 237 98q99 98 99 237v919h175v-924q-2 -230 -176 -381q-143 -125 -335 -125q-191 0 -334 125q-170 148 -176 372z" />
<glyph unicode="V" horiz-adv-x="1256" d="M42 1393v37h172l398 -1171l398 1171h172v-37l-469 -1393h-202z" />
<glyph unicode="W" horiz-adv-x="1542" d="M156 0v1430h175l1 -1072l334 561h120l335 -561v1072h176v-1430h-173l-3 6l-395 675l-394 -675l-4 -6h-172z" />
<glyph unicode="X" horiz-adv-x="1150" d="M64 0v37l375 678l-375 678v37h201l283 -522l284 522h200v-37l-375 -678l375 -678v-37h-201l-283 522l-284 -522h-200z" />
<glyph unicode="Y" horiz-adv-x="1172" d="M11 1393v37h201l370 -681l370 681h200v-37l-483 -873v-520h-175v519z" />
<glyph unicode="Z" horiz-adv-x="1145" d="M55 0v37l76 139l595 1079l-664 -1v176l960 -1v-38l-75 -136l-595 -1080h664v-175h-961z" />
<glyph unicode="a" horiz-adv-x="1189" d="M144 292q0 215 191 302q141 64 422 64h67q-4 120 -68 165q-50 36 -161 38h-14q-101 0 -178 -42q-45 -24 -115 -90l-81 138q153 156 414 156q268 0 343 -168q32 -69 32 -270v-561h-157v107h-6q-83 -131 -334 -131q-145 0 -245 74q-110 81 -110 218zM325 311q0 -77 45 -111 q43 -34 147 -38q223 5 288 173q23 60 23 119q0 24 -4 48h-71q-29 1 -56 1q-159 0 -254 -40q-117 -50 -118 -152z" />
<glyph unicode="b" horiz-adv-x="1392" d="M213 73v1366h164v-549q148 138 350 138q210 0 349 -151q136 -147 136 -363t-136 -363q-139 -151 -349 -151q-202 0 -350 138v-65h-164zM378 514q0 -145 102 -247t247 -102q141 0 232 102q88 99 88 247q0 147 -88 247q-91 102 -232 102q-145 0 -247 -102 q-102 -103 -102 -247z" />
<glyph unicode="c" horiz-adv-x="1147" d="M155 511q0 214 143 362q144 150 354 150q227 0 379 -168l-116 -116q-104 120 -263 120q-142 0 -238 -102q-95 -100 -95 -245q0 -146 95 -246q96 -102 238 -102q159 0 262 120l117 -116q-153 -168 -379 -168q-210 0 -354 150q-143 148 -143 361z" />
<glyph unicode="d" horiz-adv-x="1357" d="M160 512q0 215 136 362q138 150 347 150q201 0 349 -137l-1 547h164v-1362h-163v65q-148 -137 -349 -137q-209 0 -347 150q-136 147 -136 362zM324 512q0 -147 88 -246q90 -102 231 -102q145 0 246 102q102 102 102 246t-102 246q-101 102 -246 102q-141 0 -231 -102 q-88 -99 -88 -246z" />
<glyph unicode="e" horiz-adv-x="1272" d="M156 512q0 212 138 361q138 150 334 150t334 -150q138 -149 138 -361q0 -43 -6 -82h-778q26 -116 112 -190q88 -76 200 -76q133 0 227 102l172 -33q-117 -233 -399 -233q-196 0 -334 150t-138 362zM316 593h624q-25 116 -112 191t-200 75q-112 0 -200 -75 q-86 -75 -112 -191z" />
<glyph unicode="f" horiz-adv-x="699" d="M120 886v135h123v11q2 96 46 181q43 83 117 139q109 82 246 82v-164q-101 0 -173 -72t-72 -174h-1v-3h179v-135h-179l1 -886h-164v886h-123z" />
<glyph unicode="g" horiz-adv-x="1354" d="M153 513q0 215 135 361q137 149 346 149q200 0 347 -136v64h163v-866q-6 -214 -163 -360q-147 -136 -347 -136q-148 0 -262 58q-120 61 -184 176l138 57q115 -128 308 -128q143 0 245 102q101 101 101 245h1v41q-147 -137 -347 -137q-209 0 -346 150q-135 146 -135 360z M317 513q0 -146 87 -244q90 -102 230 -102q144 0 245 102q101 101 101 244q0 144 -101 246q-101 101 -245 101q-140 0 -230 -101q-87 -99 -87 -246z" />
<glyph unicode="h" horiz-adv-x="1236" d="M218 0v1434h164v-492q109 83 246 83t246 -82q75 -57 118 -140q44 -85 45 -182q1 -2 1 -6h-1v-615h-163v615q0 102 -72 174q-72 71 -174 71t-174 -71q-72 -72 -72 -174v-615h-164z" />
<glyph unicode="i" horiz-adv-x="570" d="M198 0v934h166v-934h-166zM198 1160q0 35 24 59q25 24 59 24t58 -24q25 -24 25 -59q0 -34 -25 -58q-24 -25 -58 -25t-59 25q-24 24 -24 58z" />
<glyph unicode="j" horiz-adv-x="606" d="M41 -234q95 0 145 70q43 62 46 168v949h166v-941q-1 -178 -94 -291q-97 -121 -263 -121v166zM231 1180q0 34 25 59q24 24 59 24q34 0 59 -24q24 -25 24 -59q0 -35 -24 -59q-25 -24 -59 -24q-35 0 -59 24q-25 24 -25 59z" />
<glyph unicode="k" horiz-adv-x="1045" d="M219 1v457l1 976h163v-810l336 401h229l-445 -512l458 -513h-232l-341 396l-5 -5v-390h-164z" />
<glyph unicode="l" horiz-adv-x="644" d="M224 0l1 1434h190v-1434h-191z" />
<glyph unicode="m" horiz-adv-x="1808" d="M195 0v1023h163v-82q110 82 246 82q107 0 217 -81q47 -36 82 -83q35 47 82 82q109 82 245 82q108 0 217 -81q74 -57 117 -140q45 -85 46 -182v-620h-163v614q0 104 -58 174q-60 71 -158 71q-102 0 -174 -71q-72 -72 -72 -174h-1v-614h-163v614q0 104 -57 174 q-61 71 -160 71q-101 0 -173 -71q-72 -72 -72 -174h-1v-614h-163z" />
<glyph unicode="n" horiz-adv-x="1211" d="M195 0v1023h163v-82q109 82 246 82t246 -81q75 -57 118 -140q44 -85 45 -182v-620h-163v614q0 102 -72 174q-72 71 -174 71q-101 0 -173 -71q-72 -72 -72 -174h-1v-614h-163z" />
<glyph unicode="o" horiz-adv-x="1327" d="M147 511q0 214 143 362q144 150 354 150q211 0 354 -150q143 -148 143 -362q0 -213 -143 -361q-143 -150 -354 -150q-210 0 -354 150q-143 148 -143 361zM311 512q0 -146 95 -246q96 -102 238 -102q143 0 239 102q94 100 94 246q0 145 -94 245q-96 102 -239 102 q-142 0 -238 -102q-95 -100 -95 -245z" />
<glyph unicode="p" horiz-adv-x="1369" d="M203 -410v1361h164v-64q147 137 348 137q210 0 348 -150q135 -147 135 -362q0 -216 -135 -362q-138 -150 -348 -150q-201 0 -348 136v-546h-164zM367 512q0 -144 102 -246t246 -102q141 0 232 102q87 99 87 246t-87 246q-91 102 -232 102q-144 0 -246 -102t-102 -246z " />
<glyph unicode="q" horiz-adv-x="1350" d="M145 502q0 215 136 362q138 150 347 150q201 0 349 -137v64h163v-1361h-163v546q-148 -136 -349 -136q-209 0 -347 150q-136 146 -136 362zM310 502q0 -147 87 -246q90 -102 231 -102q144 0 247 102q101 102 101 246t-101 246q-103 102 -247 102q-141 0 -231 -102 q-87 -99 -87 -246z" />
<glyph unicode="r" horiz-adv-x="795" d="M195 0v524l1 470h163v-108q147 137 348 137v-204q-41 12 -78 12q-93 0 -166 -71q-101 -99 -104 -241v-519h-164z" />
<glyph unicode="s" horiz-adv-x="937" d="M110 132l146 101q18 -37 69 -65q50 -27 103 -27h5q67 1 132 42q75 45 75 107q0 70 -77 114q-31 18 -170 65q-118 42 -172 87q-78 65 -80 173v5q0 138 112 218q100 71 248 71q173 0 279 -100l-122 -98q-29 40 -78 62q-45 21 -93 21q-7 0 -15 -1q-67 -5 -124 -52 q-61 -50 -61 -114t79 -106q27 -14 174 -66q118 -42 171 -87q75 -65 75 -165v-7q-5 -149 -110 -233q-96 -77 -247 -77q-208 0 -319 132z" />
<glyph unicode="t" horiz-adv-x="672" d="M114 905v123h108v204h164v-204h144v-123h-144l1 -596q0 -62 42 -109q44 -50 101 -50v-150q-75 0 -143 36q-74 39 -118 109q-46 74 -47 159v601h-108z" />
<glyph unicode="u" horiz-adv-x="1213" d="M189 403v620h163v-614h1q0 -102 71 -174q72 -71 174 -71t173 71q72 72 72 174h1v614h163v-1023h-163v82q-109 -82 -246 -82t-245 81q-75 57 -118 140q-45 85 -46 182z" />
<glyph unicode="v" horiz-adv-x="1048" d="M94 1023h172l255 -764l256 764h171l-340 -1023h-173z" />
<glyph unicode="w" horiz-adv-x="1561" d="M94 1023h172l255 -764l169 692h175l169 -692l255 764h172l-341 -1023h-172l-170 637l-170 -637h-173z" />
<glyph unicode="x" horiz-adv-x="901" d="M109 0l254 512l-254 511h182l163 -328l163 328h183l-254 -511l254 -512h-182l-164 328l-163 -328h-182z" />
<glyph unicode="y" horiz-adv-x="1051" d="M95 1024h173l255 -767l257 767h172l-342 -1026q-45 -181 -114 -277q-95 -131 -249 -131v165q100 0 162 84q40 54 40 104q0 28 -12 54v1z" />
<glyph unicode="z" horiz-adv-x="1024" d="M129 0v82l505 796h-505v150l777 -1v-81l-505 -796l505 -1v-149h-777z" />
<glyph unicode="&#xa0;" />
<glyph unicode="&#x2000;" horiz-adv-x="720" />
<glyph unicode="&#x2001;" horiz-adv-x="1440" />
<glyph unicode="&#x2002;" horiz-adv-x="720" />
<glyph unicode="&#x2003;" horiz-adv-x="1440" />
<glyph unicode="&#x2004;" horiz-adv-x="480" />
<glyph unicode="&#x2005;" horiz-adv-x="360" />
<glyph unicode="&#x2006;" horiz-adv-x="240" />
<glyph unicode="&#x2007;" horiz-adv-x="240" />
<glyph unicode="&#x2008;" horiz-adv-x="180" />
<glyph unicode="&#x2009;" horiz-adv-x="288" />
<glyph unicode="&#x200a;" horiz-adv-x="80" />
<glyph unicode="&#x202f;" horiz-adv-x="288" />
<glyph unicode="&#x205f;" horiz-adv-x="360" />
<glyph unicode="&#xe000;" horiz-adv-x="1025" d="M0 0v1025h1025v-1025h-1025z" />
</font>
</defs>
</svg>
